<svg width="166px" height="60px" viewBox="0 0 166 60" version="1.1" xmlns="http://www.w3.org/2000/svg" xmlns:xlink="http://www.w3.org/1999/xlink">
	<title>appliedAI</title>
	<g id="Page-1" stroke="none" stroke-width="1" fill="none" fill-rule="evenodd">
		<g id="appliedAI_horizontal_rgb_RZ" transform="translate(-159.751000, -122.750000)" fill-rule="nonzero">
			<g id="appliedAI" transform="translate(159.751000, 122.750000)">
				<rect id="Rectangle" fill="#084059" x="68.3529412" y="13.315508" width="6.21390374" height="44.3850267"></rect>
				<path d="M74.5668449,3.10695187 C74.5668449,4.82295493 73.1757092,6.21390374 71.4600298,6.21390374 C69.7440769,6.21390374 68.3529412,4.82295493 68.3529412,3.10695187 C68.3529412,1.39094881 69.7440769,0 71.4600298,0 C73.1757092,0 74.5668449,1.39094881 74.5668449,3.10695187" id="Path" fill="#084059"></path>
				<g id="Group" transform="translate(85.219251, 11.540107)" fill="#084059">
					<path d="M73.5765278,12.6927903 L75.3408628,12.6927903 L75.3408628,0.963942346 L73.5765278,0.963942346 L73.5765278,12.6927903 Z M66.3585001,3.14899603 L68.3795831,8.51541254 L64.3374171,8.51541254 L66.3585001,3.14899603 Z M60.9526906,12.6927903 L62.7813595,12.6927903 L63.7117039,10.1864225 L69.0052963,10.1864225 L69.9515039,12.6927903 L71.7640159,12.6927903 L67.2406676,0.963942346 L65.4763327,0.963942346 L60.9526906,12.6927903 Z M53.8712623,11.0538529 C53.523448,10.9040829 53.2214606,10.6951698 52.9650064,10.4274081 C52.7082583,10.1596463 52.5076188,9.84627677 52.3633817,9.48729947 C52.2188507,9.1286164 52.146879,8.74580535 52.146879,8.33857208 C52.146879,7.93163305 52.2188507,7.548822 52.3633817,7.18984469 C52.5076188,6.83116163 52.7082583,6.52044029 52.9650064,6.25797491 C53.2214606,5.99550953 53.523448,5.78953895 53.8712623,5.63947466 C54.2184891,5.48941038 54.5953858,5.41437824 55.0019525,5.41437824 C55.4082254,5.41437824 55.7851222,5.49235282 56.1329365,5.64741924 C56.4801632,5.80277991 56.7798005,6.01169294 57.0312608,6.27415831 C57.2821336,6.53662369 57.4801293,6.84705079 57.6246602,7.2060281 C57.7688974,7.5650054 57.8411629,7.94252007 57.8411629,8.33857208 C57.8411629,8.74580535 57.7688974,9.1286164 57.6246602,9.48729947 C57.4801293,9.84627677 57.2821336,10.1569981 57.0312608,10.4191692 C56.7798005,10.6819289 56.4801632,10.8908419 56.1329365,11.0459083 C55.7851222,11.201269 55.4082254,11.2789493 55.0019525,11.2789493 C54.5953858,11.2789493 54.2184891,11.2039172 53.8712623,11.0538529 M56.4375677,12.4838773 C56.966927,12.2267083 57.4025761,11.8733216 57.7448089,11.423423 L57.7448089,12.6927903 L59.4451037,12.6927903 L59.4451037,0 L57.7448089,0 L57.7448089,5.22164862 C57.4134453,4.79352404 56.9830839,4.45602652 56.4537246,4.2094503 C55.9243654,3.96316833 55.3709177,3.83988022 54.7933814,3.83988022 C54.216139,3.83988022 53.6626913,3.94698493 53.133332,4.16119434 C52.6039728,4.37569799 52.1386537,4.6808287 51.7376685,5.07717496 C51.3366832,5.47352122 51.0185389,5.94754781 50.7832355,6.4989605 C50.5479321,7.05066743 50.4304273,7.66946192 50.4304273,8.35475548 C50.4304273,9.02945628 50.5508697,9.64560257 50.7914608,10.2023116 C51.032052,10.759315 51.3528402,11.236284 51.7538254,11.632336 C52.1548106,12.0286823 52.6171921,12.3341072 53.1412636,12.5480224 C53.6650414,12.7622318 54.2105575,12.8693365 54.7775183,12.8693365 C55.3547607,12.8693365 55.9082085,12.7410462 56.4375677,12.4838773 M46.2519557,5.92871622 C46.7278502,6.30358268 47.0301314,6.83380982 47.1582116,7.51910339 L41.6886558,7.51910339 C41.8593315,6.88736217 42.1909889,6.370376 42.6830404,5.96873336 C43.1747981,5.56709071 43.7681974,5.36612227 44.4635322,5.36612227 C45.1797241,5.36612227 45.7760611,5.55384975 46.2519557,5.92871622 M46.9337774,12.2990922 C47.5753538,11.9189294 48.104713,11.4128302 48.5218551,10.7807947 L47.0941715,9.9292535 C46.8374235,10.3470795 46.5031222,10.6842828 46.0915616,10.9414518 C45.6800009,11.1986208 45.1694425,11.3272053 44.5598862,11.3272053 C43.7579158,11.3272053 43.1001825,11.1156441 42.5866864,10.6925216 C42.0734841,10.2693992 41.7526959,9.70445131 41.6243219,8.99738371 L48.9066834,8.99738371 L48.9066834,8.27442695 C48.9066834,7.63179872 48.7944663,7.04007465 48.5700321,6.4989605 C48.3453041,5.95814058 48.0350914,5.48941038 47.6396877,5.09306412 C47.2436964,4.69701211 46.7757334,4.38893896 46.2360925,4.16943316 C45.6958641,3.94992736 45.1051086,3.83988022 44.4635322,3.83988022 C43.8219559,3.83988022 43.2285565,3.95787194 42.6830404,4.1932669 C42.1375242,4.42925034 41.6616297,4.75056446 41.2553567,5.15750349 C40.84879,5.56473676 40.5309395,6.0437655 40.3009238,6.59547243 C40.0709081,7.14717936 39.9560471,7.74419981 39.9560471,8.38682805 C39.9560471,9.0188635 40.0656204,9.60793938 40.2850606,10.1540557 C40.5039134,10.7004662 40.81677,11.1744928 41.2233367,11.5761355 C41.6296096,11.9777781 42.1137295,12.2937958 42.6751088,12.5238944 C43.2364881,12.7542872 43.8645514,12.8693365 44.5598862,12.8693365 C45.5005123,12.8693365 46.2922011,12.6795493 46.9337774,12.2990922 M36.3633371,2.29745477 C36.5877713,2.53314397 36.8818271,2.65084145 37.2455046,2.65084145 C37.6088882,2.65084145 37.9055879,2.53314397 38.1358974,2.29745477 C38.3656193,2.06205982 38.480774,1.76722763 38.480774,1.41384096 C38.480774,1.06045428 38.3656193,0.765916339 38.1358974,0.530227139 C37.9055879,0.294537939 37.6088882,0.176546217 37.2455046,0.176546217 C36.8926963,0.176546217 36.6012844,0.294537939 36.3712687,0.530227139 C36.141253,0.765916339 36.026392,1.06045428 36.026392,1.41384096 C36.026392,1.76722763 36.1386091,2.06205982 36.3633371,2.29745477 M36.3792002,12.6927903 L38.127672,12.6927903 L38.127672,4.01672068 L36.3792002,4.01672068 L36.3792002,12.6927903 Z M32.4818589,12.6927903 L34.2303307,12.6927903 L34.2303307,0.0320725628 L32.4818589,0.0320725628 L32.4818589,12.6927903 Z M24.9829947,11.0459083 C24.6351804,10.8908419 24.333193,10.6819289 24.076445,10.4191692 C23.8199907,10.1569981 23.6193512,9.84627677 23.475114,9.48729947 C23.3305831,9.1286164 23.2586114,8.74580535 23.2586114,8.33857208 C23.2586114,7.94252007 23.3305831,7.5650054 23.475114,7.2060281 C23.6193512,6.84705079 23.8199907,6.53662369 24.076445,6.27415831 C24.333193,6.01169294 24.6351804,5.80277991 24.9829947,5.64741924 C25.3302215,5.49235282 25.7071182,5.41437824 26.1136849,5.41437824 C26.5090886,5.41437824 26.8809914,5.48941038 27.2285119,5.63947466 C27.5760325,5.78953895 27.8780199,5.99550953 28.1347679,6.25797491 C28.391516,6.52044029 28.5918617,6.83116163 28.7363926,7.18984469 C28.8806298,7.548822 28.9528953,7.93163305 28.9528953,8.33857208 C28.9528953,8.74580535 28.8806298,9.1286164 28.7363926,9.48729947 C28.5918617,9.84627677 28.391516,10.1596463 28.1347679,10.4274081 C27.8780199,10.6951698 27.5760325,10.9040829 27.2285119,11.0538529 C26.8809914,11.2039172 26.5090886,11.2789493 26.1136849,11.2789493 C25.7071182,11.2789493 25.3302215,11.201269 24.9829947,11.0459083 M27.9743738,12.5480224 C28.4981516,12.3341072 28.9608268,12.0286823 29.361812,11.632336 C29.7627973,11.236284 30.0838792,10.759315 30.3244703,10.2023116 C30.5650615,9.64560257 30.6852101,9.02945628 30.6852101,8.35475548 C30.6852101,7.66946192 30.5674116,7.05066743 30.3324019,6.4989605 C30.0970985,5.94754781 29.7789542,5.47352122 29.377969,5.07717496 C28.9769837,4.6808287 28.5169524,4.37569799 27.9984623,4.16119434 C27.4796785,3.94698493 26.9318123,3.83988022 26.354276,3.83988022 C25.7552952,3.83988022 25.191272,3.97111291 24.6619128,4.23357829 C24.1325535,4.49604366 23.7021921,4.85207853 23.3708285,5.30197714 L23.3708285,4.01672068 L21.6863968,4.01672068 L21.6863968,16.1631004 L23.3708285,16.1631004 L23.3708285,11.5358241 C23.6916167,11.9751299 24.1166904,12.3070368 24.6460496,12.5321332 C25.1754089,12.7569354 25.7447198,12.8693365 26.354276,12.8693365 C26.9100739,12.8693365 27.4503023,12.7622318 27.9743738,12.5480224 M14.1875326,11.0459083 C13.8400121,10.8908419 13.5380247,10.6819289 13.2812767,10.4191692 C13.0248224,10.1569981 12.8241829,9.84627677 12.6799457,9.48729947 C12.5354148,9.1286164 12.4634431,8.74580535 12.4634431,8.33857208 C12.4634431,7.94252007 12.5354148,7.5650054 12.6799457,7.2060281 C12.8241829,6.84705079 13.0248224,6.53662369 13.2812767,6.27415831 C13.5380247,6.01169294 13.8400121,5.80277991 14.1875326,5.64741924 C14.5350532,5.49235282 14.9119499,5.41437824 15.3185166,5.41437824 C15.7139203,5.41437824 16.0858231,5.48941038 16.4333436,5.63947466 C16.7805704,5.78953895 17.0828515,5.99550953 17.3395996,6.25797491 C17.5963476,6.52044029 17.7966934,6.83116163 17.9412243,7.18984469 C18.0854615,7.548822 18.1577269,7.93163305 18.1577269,8.33857208 C18.1577269,8.74580535 18.0854615,9.1286164 17.9412243,9.48729947 C17.7966934,9.84627677 17.5963476,10.1596463 17.3395996,10.4274081 C17.0828515,10.6951698 16.7805704,10.9040829 16.4333436,11.0538529 C16.0858231,11.2039172 15.7139203,11.2789493 15.3185166,11.2789493 C14.9119499,11.2789493 14.5350532,11.201269 14.1875326,11.0459083 M17.1792055,12.5480224 C17.7029833,12.3341072 18.1656585,12.0286823 18.5666437,11.632336 C18.9676289,11.236284 19.2884171,10.759315 19.5290082,10.2023116 C19.7698931,9.64560257 19.8900418,9.02945628 19.8900418,8.35475548 C19.8900418,7.66946192 19.7722432,7.05066743 19.5372336,6.4989605 C19.3019302,5.94754781 18.9837859,5.47352122 18.5828006,5.07717496 C18.1818154,4.6808287 17.721784,4.37569799 17.203294,4.16119434 C16.6845102,3.94698493 16.1366439,3.83988022 15.5591077,3.83988022 C14.9601269,3.83988022 14.3961037,3.97111291 13.8667445,4.23357829 C13.3373852,4.49604366 12.9070238,4.85207853 12.5756602,5.30197714 L12.5756602,4.01672068 L10.8912285,4.01672068 L10.8912285,16.1631004 L12.5756602,16.1631004 L12.5756602,11.5358241 C12.8964484,11.9751299 13.3215221,12.3070368 13.8508813,12.5321332 C14.3802406,12.7569354 14.9495514,12.8693365 15.5591077,12.8693365 C16.1149055,12.8693365 16.655134,12.7622318 17.1792055,12.5480224 M2.80689652,11.0379637 C2.53957304,10.8237543 2.4059113,10.5292164 2.4059113,10.1540557 C2.4059113,9.7259311 2.57952468,9.39372997 2.92733897,9.15804077 C3.27456573,8.92264581 3.84975185,8.80465409 4.65172228,8.80465409 L7.10581056,8.80465409 L7.10581056,9.52761085 C6.96686111,9.8168524 6.78766625,10.0737271 6.56851975,10.2988236 C6.34907949,10.5236258 6.1058445,10.7140014 5.83852102,10.8690679 C5.57119754,11.0244285 5.28771715,11.1450684 4.98837361,11.2306934 C4.68903006,11.3166125 4.38410504,11.3592779 4.07418606,11.3592779 C3.49664985,11.3592779 3.07422,11.2521731 2.80689652,11.0379637 M5.69428385,12.4035487 C6.29297093,12.0931216 6.76357776,11.680592 7.10581056,11.166254 L7.10581056,12.6927903 L8.77408532,12.6927903 L8.77408532,7.32637377 C8.77408532,6.80173726 8.6883068,6.32506247 8.51733728,5.89634941 C8.34636776,5.46822483 8.09490743,5.10130294 7.76354382,4.79587799 C7.43188645,4.49074728 7.02296966,4.25505808 6.53649968,4.08881039 C6.04973594,3.92315119 5.49628822,3.83988022 4.8761565,3.83988022 C3.94581204,3.83988022 3.14648547,4.0276077 2.47817677,4.40217992 C1.80957431,4.77734064 1.26170806,5.24842479 0.833990499,5.81602088 L2.37389124,6.7158181 C2.61977009,6.28769352 2.95142746,5.94754781 3.36827582,5.69567521 C3.78541796,5.44409685 4.28275713,5.31816055 4.86029335,5.31816055 C5.63024372,5.31816055 6.19691074,5.50029739 6.56058817,5.86427685 C6.92397185,6.22855054 7.10581056,6.69992894 7.10581056,7.2781178 L7.10581056,7.4228857 L4.53950517,7.4228857 C3.32039261,7.4228857 2.36595966,7.6774065 1.67620634,8.18615384 C0.986453011,8.69490119 0.641576348,9.39902636 0.641576348,10.2988236 C0.641576348,10.6630973 0.708260336,11.003243 0.841922075,11.3189665 C0.975583814,11.6349842 1.17093559,11.9083366 1.42738987,12.1384352 C1.68413791,12.368828 2.00228223,12.5480224 2.38182281,12.6766069 C2.7613634,12.8051914 3.20259402,12.8693365 3.70522091,12.8693365 C4.43228202,12.8693365 5.095303,12.7139758 5.69428385,12.4035487" id="Shape"></path>
					<path d="M58.6263889,22.3013181 C58.9985854,22.4454976 59.32378,22.6494084 59.6019727,22.9130508 C59.8798716,23.1766931 60.1007807,23.4897684 60.2646999,23.8528652 C60.4283254,24.2159619 60.5302608,24.6161333 60.5699187,25.0536737 L54.0169683,25.0536737 C54.0763082,24.6358476 54.2005696,24.2456805 54.3891648,23.8825838 C54.5777601,23.5197813 54.8209951,23.2037636 55.1188698,22.9354133 C55.4167445,22.6667688 55.7592711,22.4578558 56.1467433,22.3086742 C56.5339217,22.1594927 56.95077,22.085049 57.3975821,22.085049 C57.8443942,22.085049 58.2538986,22.1571387 58.6263889,22.3013181 M59.6316426,29.1560193 C60.2273921,28.7979247 60.748526,28.26093 61.1953381,27.545035 L60.4359632,27.127209 C60.1181126,27.7239352 59.7109584,28.1714799 59.2145005,28.469843 C58.7180426,28.7682061 58.1073113,28.9173876 57.382894,28.9173876 C56.9061182,28.9173876 56.4669439,28.8402958 56.0647837,28.6861121 C55.6626234,28.5319284 55.312459,28.3183075 55.0145843,28.0446608 C54.7170033,27.7713084 54.4784685,27.4479346 54.2998612,27.0751279 C54.1212538,26.7020269 54.0169683,26.2918511 53.9870046,25.8443065 L61.448561,25.8443065 L61.448561,25.4117683 C61.448561,24.815042 61.3466256,24.2656891 61.1433422,23.7631208 C60.9397651,23.2611411 60.6568722,22.8286029 60.2943699,22.4655061 C59.9318675,22.1024094 59.5023873,21.8190527 59.0062232,21.6151419 C58.5094716,21.411231 57.9733558,21.3094227 57.3975821,21.3094227 C56.7818569,21.3094227 56.2160711,21.4188813 55.6999312,21.6375044 C55.1834975,21.8564217 54.7366854,22.1547848 54.3594949,22.5325937 C53.9820106,22.9106968 53.6891298,23.3582415 53.4808525,23.8752277 C53.2722815,24.3925081 53.1679959,24.9492172 53.1679959,25.5459434 C53.1679959,26.1426696 53.2669938,26.6923168 53.4658707,27.1942966 C53.6644538,27.6965705 53.9447028,28.1341109 54.3072052,28.5072119 C54.6697076,28.8800187 55.1115258,29.1710257 55.6326597,29.3799387 C56.1540873,29.5885575 56.7424927,29.693014 57.3975821,29.693014 C58.2912063,29.693014 59.0358932,29.5141138 59.6316426,29.1560193 M47.0172058,22.2192242 L48.5659195,22.2192242 L48.5659195,27.3061092 C48.5659195,28.0920341 48.7348326,28.6711057 49.0723652,29.0442067 C49.4098979,29.4170134 49.9163437,29.6035639 50.5914089,29.6035639 C50.9389294,29.6035639 51.2368041,29.5514828 51.4850331,29.4470263 C51.733262,29.3425698 51.9715031,29.1857379 52.2000499,28.9771191 L51.6936041,28.3803929 C51.4054236,28.6887603 51.062897,28.8426497 50.6660244,28.8426497 C50.2885402,28.8426497 49.9833214,28.725835 49.7500743,28.4922055 C49.5168273,28.258576 49.4002037,27.8484003 49.4002037,27.2613841 L49.4002037,22.2192242 L51.8425415,22.2192242 L51.8425415,21.4733164 L49.4002037,21.4733164 L49.4002037,19.1611494 L48.5659195,19.6831377 L48.5659195,21.4733164 L47.0172058,21.4733164 L47.0172058,22.2192242 L47.0172058,22.2192242 Z M43.1897799,29.2081004 C43.685944,28.8853151 44.0631345,28.469843 44.3216452,27.9625668 L44.3216452,29.528826 L45.1256719,29.528826 L45.1256719,21.4733164 L44.3066633,21.4733164 L44.3066633,25.9637694 C44.3066633,26.3813012 44.2370417,26.7691144 44.0980922,27.127209 C43.9591428,27.4853036 43.7632035,27.7963192 43.5099806,28.0596673 C43.2567577,28.3233096 42.9588829,28.5295744 42.6163564,28.678756 C42.2738298,28.8279376 41.8989894,28.9023812 41.4918352,28.9023812 C40.6079051,28.9023812 39.9404777,28.6363849 39.4886717,28.1043923 C39.0368656,27.5723997 38.8109626,26.8638609 38.8109626,25.9784816 L38.8109626,21.4733164 L37.9769721,21.4733164 L37.9769721,25.9784816 C37.9769721,27.1422154 38.2675028,28.0520169 38.8482704,28.7084746 C39.429038,29.3649323 40.2853544,29.693014 41.4175134,29.693014 C42.1025665,29.693014 42.6930283,29.53118 43.1897799,29.2081004 M31.2154507,22.2192242 L32.764458,22.2192242 L32.764458,27.3061092 C32.764458,28.0920341 32.9330775,28.6711057 33.2709038,29.0442067 C33.6081427,29.4170134 34.1145885,29.6035639 34.7899475,29.6035639 C35.137468,29.6035639 35.4353427,29.5514828 35.6835717,29.4470263 C35.9315068,29.3425698 36.1700416,29.1857379 36.3982948,28.9771191 L35.8921427,28.3803929 C35.6039621,28.6887603 35.2614356,28.8426497 34.8642693,28.8426497 C34.4870788,28.8426497 34.1815662,28.725835 33.9486129,28.4922055 C33.7150721,28.258576 33.5984485,27.8484003 33.5984485,27.2613841 L33.5984485,22.2192242 L36.0410801,22.2192242 L36.0410801,21.4733164 L33.5984485,21.4733164 L33.5984485,19.1611494 L32.764458,19.6831377 L32.764458,21.4733164 L31.2154507,21.4733164 L31.2154507,22.2192242 L31.2154507,22.2192242 Z M28.3785904,19.5115937 C28.5222401,19.6660716 28.7084852,19.7428692 28.9370321,19.7428692 C29.1652852,19.7428692 29.3538805,19.6660716 29.5028178,19.5115937 C29.6517552,19.3577042 29.7263708,19.1661516 29.7263708,18.93723 C29.7263708,18.7186069 29.6517552,18.5347046 29.5028178,18.3855231 C29.3538805,18.2363415 29.1652852,18.1616036 28.9370321,18.1616036 C28.728461,18.1616036 28.5472098,18.2363415 28.3932785,18.3855231 C28.2393472,18.5347046 28.1623815,18.7186069 28.1623815,18.93723 C28.1623815,19.1661516 28.2343532,19.3577042 28.3785904,19.5115937 M28.51989,29.528826 L29.3538805,29.528826 L29.3538805,21.4733164 L28.51989,21.4733164 L28.51989,29.528826 Z M21.5500912,22.2192242 L23.0988048,22.2192242 L23.0988048,27.3061092 C23.0988048,28.0920341 23.267718,28.6711057 23.6052506,29.0442067 C23.9427833,29.4170134 24.4492291,29.6035639 25.1242943,29.6035639 C25.4718148,29.6035639 25.7696895,29.5514828 26.0179185,29.4470263 C26.2661474,29.3425698 26.5043885,29.1857379 26.7329353,28.9771191 L26.2264895,28.3803929 C25.938309,28.6887603 25.5957824,28.8426497 25.1989098,28.8426497 C24.8214256,28.8426497 24.5162068,28.725835 24.2829597,28.4922055 C24.0494189,28.258576 23.9330891,27.8484003 23.9330891,27.2613841 L23.9330891,22.2192242 L26.3754269,22.2192242 L26.3754269,21.4733164 L23.9330891,21.4733164 L23.9330891,19.1611494 L23.0988048,19.6831377 L23.0988048,21.4733164 L21.5500912,21.4733164 L21.5500912,22.2192242 L21.5500912,22.2192242 Z M18.5343299,29.4991074 C18.9165143,29.3699344 19.236715,29.1957422 19.4949318,28.9771191 C19.7531487,28.758496 19.9493818,28.4995616 20.0833373,28.2011985 C20.2172928,27.9028354 20.2842705,27.5847579 20.2842705,27.2466719 C20.2842705,26.8288459 20.1973169,26.4907599 20.0237036,26.2321197 C19.8497964,25.9737737 19.6238934,25.7648607 19.3459945,25.6056748 C19.0680956,25.446489 18.7525951,25.3246721 18.4003744,25.2402242 C18.0478599,25.1557762 17.6929953,25.0833923 17.3354869,25.0239551 C17.0176364,24.9642236 16.7100675,24.9044921 16.4121927,24.8447607 C16.114318,24.7850292 15.8511072,24.7029352 15.6228541,24.5987729 C15.3943072,24.4943164 15.2107059,24.3624952 15.0717564,24.2033094 C14.9325132,24.0444178 14.8631854,23.8355048 14.8631854,23.5768646 C14.8631854,23.1193156 15.0144728,22.7488628 15.3173415,22.4655061 C15.6202102,22.1818552 16.138994,22.040324 16.8736929,22.040324 C17.4694424,22.040324 17.9758882,22.1547848 18.3930303,22.3834121 C18.8098787,22.6123337 19.1573992,22.9006926 19.4355919,23.2484886 L20.0906813,22.6517624 C19.7131971,22.2542392 19.2690288,21.9285114 18.7578828,21.6748733 C18.2464431,21.4212353 17.6183798,21.2944162 16.8736929,21.2944162 C16.3972109,21.2944162 15.9777187,21.3565016 15.6152163,21.4809667 C15.2527139,21.6054318 14.9524891,21.7716795 14.714248,21.9805925 C14.476007,22.1895055 14.2971059,22.4331393 14.1781323,22.7114939 C14.0588649,22.9901426 13.9992312,23.2835036 13.9992312,23.5915768 C13.9992312,23.9896885 14.0835409,24.312768 14.2524541,24.561404 C14.4213672,24.8100399 14.6446264,25.0089486 14.9228191,25.1581302 C15.200718,25.3073117 15.5132808,25.4241265 15.8610951,25.5085744 C16.2086156,25.5933166 16.5611301,25.6654063 16.9183448,25.7248435 C17.2361953,25.784575 17.5464081,25.8469547 17.8492768,25.911394 C18.1521455,25.9761277 18.4200565,26.0605756 18.6535973,26.1650321 C18.8868444,26.2694886 19.0727958,26.4089601 19.212039,26.5825639 C19.3509884,26.7567562 19.42061,26.9780274 19.42061,27.2466719 C19.42061,27.7536538 19.2343649,28.1617698 18.8621684,28.469843 C18.4896781,28.7782104 17.9409305,28.9323941 17.2162195,28.9323941 C16.4915085,28.9323941 15.8857711,28.7955707 15.3993012,28.5219241 C14.9128312,28.2485717 14.5106709,27.9081318 14.1931141,27.5000158 L13.5227491,28.1117484 C13.8999396,28.5592931 14.3814156,28.934748 14.9674709,29.2381133 C15.5532325,29.5411843 16.3026195,29.693014 17.2162195,29.693014 C17.7126774,29.693014 18.1521455,29.6282804 18.5343299,29.4991074 M4.37852356,29.528826 L5.21251406,29.528826 L5.21251406,25.0386672 C5.21251406,24.6211354 5.28683586,24.233028 5.43577323,23.8752277 C5.5847106,23.5171331 5.78828771,23.2064118 6.04650456,22.9427694 C6.30442765,22.6794213 6.6099402,22.4728622 6.96245468,22.3236807 C7.31467539,22.1744991 7.69450974,22.1000555 8.10166396,22.1000555 C9.00527607,22.1000555 9.70031711,22.3660518 10.1867871,22.8980444 C10.6732571,23.430037 10.9164921,24.13887 10.9164921,25.0239551 L10.9164921,29.528826 L11.7654644,29.528826 L11.7654644,25.0239551 C11.7654644,24.4472374 11.6811547,23.929957 11.5122415,23.4724081 C11.3433283,23.0151534 11.1050873,22.624692 10.7975184,22.3013181 C10.4896558,21.9782386 10.1171655,21.7322508 9.68034129,21.5627665 C9.2435171,21.3938706 8.75704712,21.3094227 8.22093136,21.3094227 C7.5159024,21.3094227 6.90017712,21.4733164 6.37404926,21.8016924 C5.84762764,22.1297741 5.4507551,22.5526023 5.18255033,23.0695884 L5.18255033,21.4733164 L4.37852356,21.4733164 L4.37852356,29.528826 L4.37852356,29.528826 Z M0.767012749,19.5115937 C0.910662398,19.6660716 1.09690755,19.7428692 1.32545443,19.7428692 C1.55370756,19.7428692 1.74259656,19.6660716 1.89153393,19.5115937 C2.04017753,19.3577042 2.1147931,19.1661516 2.1147931,18.93723 C2.1147931,18.7186069 2.04017753,18.5347046 1.89153393,18.3855231 C1.74259656,18.2363415 1.55370756,18.1616036 1.32545443,18.1616036 C1.11688337,18.1616036 0.935632173,18.2363415 0.781700852,18.3855231 C0.627769531,18.5347046 0.551097632,18.7186069 0.551097632,18.93723 C0.551097632,19.1661516 0.622775575,19.3577042 0.767012749,19.5115937 M0.908312302,29.528826 L1.7423028,29.528826 L1.7423028,21.4733164 L0.908312302,21.4733164 L0.908312302,29.528826 Z" id="Shape"></path>
					<path d="M77.9582828,37.7246899 C78.3307731,37.8688693 78.6556739,38.0727802 78.9338666,38.3361283 C79.2117655,38.5997707 79.4326746,38.9131402 79.5965938,39.2762369 C79.760513,39.6393336 79.8621547,40.0395051 79.9018126,40.4770454 L73.3488622,40.4770454 C73.4084959,40.0592194 73.5324635,39.6690523 73.7213525,39.3059555 C73.909654,38.9428588 74.1531827,38.6271353 74.4510575,38.3587851 C74.7489322,38.0901406 75.0914588,37.8812276 75.4786372,37.732046 C75.8658156,37.5828645 76.2829577,37.5084208 76.7297698,37.5084208 C77.1765819,37.5084208 77.5860862,37.5805105 77.9582828,37.7246899 M78.9635365,44.579391 C79.559286,44.2212965 80.0807137,43.6843017 80.5275258,42.9681126 L79.7678571,42.5505808 C79.4500065,43.147307 79.0431461,43.5948516 78.5466882,43.8932147 C78.0499365,44.1915779 77.4394989,44.3407594 76.7147879,44.3407594 C76.2383059,44.3407594 75.7988378,44.2636676 75.3966776,44.1094839 C74.9945173,43.9553002 74.6446467,43.7416792 74.3467719,43.4680326 C74.0488972,43.1946802 73.8106562,42.8713064 73.6317551,42.4982054 C73.4531477,42.1253986 73.3488622,41.7152229 73.3191922,41.2676783 L80.7807487,41.2676783 L80.7807487,40.83514 C80.7807487,40.2384138 80.6788132,39.6887666 80.4752361,39.1864926 C80.271659,38.6845129 79.9887661,38.2519746 79.6265575,37.8888779 C79.2637614,37.5257812 78.834575,37.2424245 78.3381171,37.0385136 C77.8416592,36.8346027 77.3052497,36.7325002 76.7297698,36.7325002 C76.1140445,36.7325002 75.547965,36.8422531 75.0318251,37.0608761 C74.5153914,37.2797935 74.0685793,37.5781566 73.6913888,37.9559655 C73.3139045,38.3340686 73.0213175,38.7816133 72.8127464,39.2985994 C72.6041754,39.8155856 72.4998898,40.3725889 72.4998898,40.9693151 C72.4998898,41.5660414 72.5991814,42.1156886 72.7977646,42.6176683 C72.9963477,43.1199423 73.2765967,43.5574827 73.6393929,43.9305837 C74.0016015,44.3033905 74.4434197,44.5943975 74.9648473,44.8030163 C75.4859812,45.0119293 76.0743866,45.1163858 76.7297698,45.1163858 C77.623394,45.1163858 78.3680808,44.9374856 78.9635365,44.579391 M65.0682972,44.0497524 C64.6608492,43.8758544 64.3059846,43.6345745 64.0034097,43.3262071 C63.7002472,43.018134 63.46465,42.6573912 63.2960306,42.2448616 C63.1268237,41.8320377 63.0428077,41.3921433 63.0428077,40.9245901 C63.0428077,40.4570369 63.1268237,40.0171426 63.2960306,39.6043186 C63.46465,39.191789 63.7002472,38.8310462 64.0034097,38.5226788 C64.3059846,38.2146057 64.6608492,37.9706777 65.0682972,37.7917775 C65.4751576,37.6128773 65.9172695,37.523133 66.3937516,37.523133 C66.8602457,37.523133 67.2947198,37.6105234 67.6968801,37.7844214 C68.0990404,37.9583194 68.4465609,38.1972453 68.7394417,38.5003163 C69.0320287,38.8039758 69.2629257,39.1641301 69.4318388,39.5819561 C69.600752,39.9994879 69.6850617,40.4470326 69.6850617,40.9245901 C69.6850617,41.421862 69.600752,41.8770569 69.4318388,42.2895866 C69.2629257,42.7024105 69.0320287,43.0578569 68.7394417,43.35622 C68.4465609,43.6545831 68.0990404,43.8882126 67.6968801,44.0571085 C67.2947198,44.2265929 66.8602457,44.3107466 66.3937516,44.3107466 C65.9172695,44.3107466 65.4751576,44.2239447 65.0682972,44.0497524 M68.0840585,44.8030163 C68.5954983,44.5943975 69.0346725,44.3033905 69.4021689,43.9305837 C69.7693715,43.5574827 70.0549082,43.1152344 70.2584853,42.6026619 C70.4620624,42.0906779 70.5639978,41.5313206 70.5639978,40.9245901 C70.5639978,40.3278639 70.4570685,39.7758627 70.2437972,39.2685866 C70.0299384,38.7613105 69.7373514,38.3190622 69.3648611,37.940959 C68.9926646,37.5631501 68.5555466,37.2674352 68.0543885,37.0532258 C67.5529367,36.8396049 67.0091831,36.7325002 66.4234216,36.7325002 C66.105571,36.7325002 65.7830203,36.7751655 65.4554756,36.8593192 C65.1279309,36.9440614 64.8174243,37.0682322 64.5245436,37.2324202 C64.2316628,37.396314 63.963458,37.5978709 63.720223,37.8365025 C63.4769881,38.0751342 63.275761,38.3487808 63.1171295,38.6571482 L63.1171295,36.8966882 L62.2981209,36.8966882 L62.2981209,47.9358289 L63.1321114,47.9358289 L63.1321114,43.2367571 C63.2907429,43.5351202 63.49432,43.8014107 63.7428427,44.034746 C63.9907779,44.2686697 64.2589827,44.4652245 64.5468695,44.6241161 C64.8347563,44.7833019 65.137625,44.9051188 65.4554756,44.9895668 C65.7730323,45.0740147 66.0858889,45.1163858 66.3937516,45.1163858 C67.0091831,45.1163858 67.5726187,45.0119293 68.0840585,44.8030163 M54.5613094,44.0571085 C54.1591491,43.8882126 53.8113349,43.6545831 53.5187478,43.35622 C53.2255733,43.0578569 52.9946763,42.7024105 52.8260569,42.2895866 C52.6571437,41.8770569 52.572834,41.421862 52.572834,40.9245901 C52.572834,40.4470326 52.6571437,39.9994879 52.8260569,39.5819561 C52.9946763,39.1641301 53.2255733,38.8039758 53.5187478,38.5003163 C53.8113349,38.1972453 54.1591491,37.9583194 54.5613094,37.7844214 C54.9631759,37.6105234 55.39765,37.523133 55.8644379,37.523133 C56.3309321,37.523133 56.7654062,37.6105234 57.1675664,37.7844214 C57.5697267,37.9583194 57.9195973,38.1972453 58.2174721,38.5003163 C58.5153468,38.8039758 58.7485939,39.1641301 58.9175071,39.5819561 C59.0861265,39.9994879 59.17073,40.4470326 59.17073,40.9245901 C59.17073,41.4118577 59.0861265,41.8620505 58.9175071,42.2745802 C58.7485939,42.6874041 58.5176969,43.0454987 58.2248161,43.3485697 C57.9319353,43.6522292 57.5844148,43.8882126 57.1822545,44.0571085 C56.780388,44.2265929 56.34092,44.3107466 55.8644379,44.3107466 C55.39765,44.3107466 54.9631759,44.2265929 54.5613094,44.0571085 M57.5250749,44.7883041 C58.0362209,44.569681 58.478039,44.2713179 58.8505293,43.8932147 C59.2227258,43.5154058 59.5156066,43.0725691 59.7291716,42.5655872 C59.9424429,42.0583111 60.0493723,41.511312 60.0493723,40.9245901 C60.0493723,40.3278639 59.9424429,39.7758627 59.7291716,39.2685866 C59.5156066,38.7613105 59.220082,38.3190622 58.8428915,37.940959 C58.465701,37.5631501 58.0238829,37.2674352 57.5174371,37.0532258 C57.0109913,36.8396049 56.4601874,36.7325002 55.8644379,36.7325002 C55.2686885,36.7325002 54.7175908,36.8396049 54.211145,37.0532258 C53.7046992,37.2674352 53.2655249,37.5631501 52.8930347,37.940959 C52.5208381,38.3190622 52.2279573,38.7613105 52.0143923,39.2685866 C51.8008273,39.7758627 51.6941917,40.3278639 51.6941917,40.9245901 C51.6941917,41.5313206 51.7984772,42.0906779 52.0070483,42.6026619 C52.2156193,43.1152344 52.5058563,43.5574827 52.8783465,43.9305837 C53.2505431,44.3033905 53.6900111,44.5943975 54.1961632,44.8030163 C54.702609,45.0119293 55.2587006,45.1163858 55.8644379,45.1163858 C56.4601874,45.1163858 57.0133414,45.0069271 57.5250749,44.7883041 M46.4217501,44.9521978 L47.2410525,44.9521978 L47.2410525,40.6559456 C47.2410525,39.6019647 47.4369918,38.8236901 47.8291642,38.3214161 C48.2213365,37.8191421 48.804748,37.5681523 49.5793986,37.5681523 C49.7876759,37.5681523 49.9712772,37.5928687 50.1302024,37.6425959 C50.2891277,37.6923231 50.4230832,37.7570567 50.5323627,37.8365025 L50.934523,37.0608761 C50.6069783,36.8719717 50.1648664,36.7772252 49.6090685,36.7772252 C48.9736612,36.7772252 48.4548774,36.9243471 48.0527171,37.2174138 C47.6505569,37.5107748 47.3650201,37.940959 47.1964007,38.5079666 L47.1964007,36.8966882 L46.4217501,36.8966882 L46.4217501,44.9521978 L46.4217501,44.9521978 Z M41.8942892,44.6314722 C42.3907471,44.3083926 42.7679376,43.8932147 43.0261544,43.3859386 L43.0261544,44.9521978 L43.830475,44.9521978 L43.830475,36.8966882 L43.0111726,36.8966882 L43.0111726,41.386847 C43.0111726,41.804673 42.9418447,42.1924862 42.8028953,42.5505808 C42.6636521,42.9086753 42.4677128,43.2193967 42.2144899,43.483039 C41.961267,43.7466814 41.6633922,43.9529462 41.3208657,44.1021278 C40.9783391,44.2513093 40.6034987,44.325753 40.1963445,44.325753 C39.3127082,44.325753 38.644987,44.0597567 38.193181,43.5277641 C37.7413749,42.9957715 37.5157657,42.2872327 37.5157657,41.4018534 L37.5157657,36.8966882 L36.6817752,36.8966882 L36.6817752,41.4018534 C36.6817752,42.5655872 36.9720121,43.4753887 37.5527797,44.1318464 C38.133841,44.7883041 38.9901575,45.1163858 40.1220227,45.1163858 C40.8070758,45.1163858 41.3978313,44.9545518 41.8942892,44.6314722 M31.6552125,37.7246899 C32.0277028,37.8688693 32.3528974,38.0727802 32.6307963,38.3361283 C32.9086952,38.5997707 33.129898,38.9131402 33.2935235,39.2762369 C33.4574427,39.6393336 33.5590844,40.0395051 33.5990361,40.4770454 L27.0457919,40.4770454 C27.1054256,40.0592194 27.2293932,39.6690523 27.4182822,39.3059555 C27.6065837,38.9428588 27.8501125,38.6271353 28.1479872,38.3587851 C28.4458619,38.0901406 28.7883885,37.8812276 29.1755669,37.732046 C29.5627453,37.5828645 29.9798874,37.5084208 30.4266995,37.5084208 C30.8735116,37.5084208 31.2830159,37.5805105 31.6552125,37.7246899 M32.66076,44.579391 C33.2562157,44.2212965 33.7776434,43.6843017 34.2244555,42.9681126 L33.4647868,42.5505808 C33.1469362,43.147307 32.7400758,43.5948516 32.2436179,43.8932147 C31.74716,44.1915779 31.1364287,44.3407594 30.4117177,44.3407594 C29.9352356,44.3407594 29.4957675,44.2636676 29.0936073,44.1094839 C28.691447,43.9553002 28.3415764,43.7416792 28.0437017,43.4680326 C27.7458269,43.1946802 27.5075859,42.8713064 27.3286848,42.4982054 C27.1500775,42.1253986 27.0457919,41.7152229 27.016122,41.2676783 L34.4776784,41.2676783 L34.4776784,40.83514 C34.4776784,40.2384138 34.375743,39.6887666 34.1724596,39.1864926 C33.9685887,38.6845129 33.6856959,38.2519746 33.3234872,37.8888779 C32.9606911,37.5257812 32.5315047,37.2424245 32.0350468,37.0385136 C31.5385889,36.8346027 31.0024732,36.7325002 30.4266995,36.7325002 C29.8109742,36.7325002 29.2448947,36.8422531 28.7287548,37.0608761 C28.2123211,37.2797935 27.765509,37.5781566 27.3883185,37.9559655 C27.0108343,38.3340686 26.7182472,38.7816133 26.5096762,39.2985994 C26.3011051,39.8155856 26.1968196,40.3725889 26.1968196,40.9693151 C26.1968196,41.5660414 26.2961111,42.1156886 26.4946943,42.6176683 C26.6932775,43.1199423 26.9738202,43.5574827 27.3363226,43.9305837 C27.6985312,44.3033905 28.1403494,44.5943975 28.661777,44.8030163 C29.182911,45.0119293 29.7713164,45.1163858 30.4266995,45.1163858 C31.3203237,45.1163858 32.0650106,44.9374856 32.66076,44.579391 M16.2932191,44.9521978 L17.1122277,44.9521978 L17.1122277,40.6559456 C17.1122277,39.6019647 17.308167,38.8236901 17.7006332,38.3214161 C18.0925118,37.8191421 18.6759232,37.5681523 19.4505738,37.5681523 C19.6588511,37.5681523 19.8424524,37.5928687 20.0013776,37.6425959 C20.1603029,37.6923231 20.2942584,37.7570567 20.4035379,37.8365025 L20.8056982,37.0608761 C20.4781535,36.8719717 20.0363353,36.7772252 19.4802437,36.7772252 C18.8448364,36.7772252 18.3260526,36.9243471 17.9238923,37.2174138 C17.5217321,37.5107748 17.2361953,37.940959 17.0675759,38.5079666 L17.0675759,36.8966882 L16.2932191,36.8966882 L16.2932191,44.9521978 L16.2932191,44.9521978 Z M8.55611387,44.0571085 C8.15395361,43.8882126 7.80643309,43.6545831 7.51355231,43.35622 C7.22067153,43.0578569 6.98977455,42.7024105 6.82115512,42.2895866 C6.65224194,41.8770569 6.56793222,41.421862 6.56793222,40.9245901 C6.56793222,40.4470326 6.65224194,39.9994879 6.82115512,39.5819561 C6.98977455,39.1641301 7.22067153,38.8039758 7.51355231,38.5003163 C7.80643309,38.1972453 8.15395361,37.9583194 8.55611387,37.7844214 C8.95827414,37.6105234 9.39245447,37.523133 9.85924239,37.523133 C10.3260303,37.523133 10.7605044,37.6105234 11.1626647,37.7844214 C11.5645312,37.9583194 11.9146955,38.1972453 12.2125703,38.5003163 C12.510445,38.8039758 12.7436921,39.1641301 12.9126053,39.5819561 C13.0812247,39.9994879 13.1658282,40.4470326 13.1658282,40.9245901 C13.1658282,41.4118577 13.0812247,41.8620505 12.9126053,42.2745802 C12.7436921,42.6874041 12.5127951,43.0454987 12.2199143,43.3485697 C11.9270336,43.6522292 11.579513,43.8882126 11.1773528,44.0571085 C10.7751925,44.2265929 10.3360182,44.3107466 9.85924239,44.3107466 C9.39245447,44.3107466 8.95827414,44.2265929 8.55611387,44.0571085 M11.5198793,44.7883041 C12.0313191,44.569681 12.4731372,44.2713179 12.8456275,43.8932147 C13.2178241,43.5154058 13.5107048,43.0725691 13.7242699,42.5655872 C13.9375411,42.0583111 14.0444705,41.511312 14.0444705,40.9245901 C14.0444705,40.3278639 13.9375411,39.7758627 13.7242699,39.2685866 C13.5107048,38.7613105 13.2151802,38.3190622 12.8379897,37.940959 C12.4605055,37.5631501 12.0189811,37.2674352 11.5125353,37.0532258 C11.0060895,36.8396049 10.4549919,36.7325002 9.85924239,36.7325002 C9.26378668,36.7325002 8.71268905,36.8396049 8.20624325,37.0532258 C7.69979746,37.2674352 7.26062317,37.5631501 6.88813287,37.940959 C6.51593634,38.3190622 6.2227618,38.7613105 6.00949054,39.2685866 C5.79592552,39.7758627 5.68928989,40.3278639 5.68928989,40.9245901 C5.68928989,41.5313206 5.79357542,42.0906779 6.00185273,42.6026619 C6.21042379,43.1152344 6.50095447,43.5574827 6.87315101,43.9305837 C7.24564131,44.3033905 7.68481559,44.5943975 8.19126139,44.8030163 C8.69770719,45.0119293 9.25350501,45.1163858 9.85924239,45.1163858 C10.4549919,45.1163858 11.0084396,45.0069271 11.5198793,44.7883041 M0,37.6425959 L1.57867733,37.6425959 L1.57867733,44.9521978 L2.4276497,44.9521978 L2.4276497,37.6425959 L4.76599572,37.6425959 L4.76599572,36.8966882 L2.4276497,36.8966882 L2.4276497,36.1210618 C2.4276497,35.6635128 2.45232571,35.2957082 2.5019715,35.0170594 C2.55161729,34.7387049 2.65090886,34.5247897 2.79984623,34.3756082 C2.9487836,34.2264266 3.15735466,34.1272665 3.42555943,34.0772451 C3.69347043,34.0275179 4.04598491,34.0028014 4.48280909,34.0028014 L4.76599572,34.0028014 L4.76599572,33.1971622 L4.4231754,33.1971622 C3.86708381,33.1971622 3.40558361,33.2395333 3.03838103,33.3239812 C2.67088468,33.4084292 2.37771015,33.5602589 2.15944493,33.778882 C1.94088596,33.9977993 1.78959849,34.2961624 1.70528878,34.6739713 C1.62068531,35.0520744 1.57867733,35.5293377 1.57867733,36.1060554 L1.57867733,36.8966882 L0,36.8966882 L0,37.6425959 Z" id="Shape"></path>
				</g>
				<g id="Group" transform="translate(0.000000, 10.652406)">
					<path d="M66.5569069,23.2221596 C66.4077581,10.3922469 55.978839,0 43.1747404,0 C30.2777922,0 19.7852049,10.5415761 19.7852049,23.4992744 C19.7852049,36.4563824 30.2777922,46.9976634 43.1747404,46.9976634 C46.3967667,46.9976634 49.5185745,46.3501768 52.4535042,45.0752718 C54.0976779,44.3602035 54.854328,42.4416485 54.143071,40.7889938 C53.4312246,39.1372244 51.5205874,38.3761179 49.8770032,39.0917764 C47.760918,40.0116558 45.5054112,40.4782356 43.1747404,40.4782356 C33.8552996,40.4782356 26.2743559,32.8618584 26.2743559,23.4992744 C26.2743559,14.1363952 33.8552996,6.5194277 43.1747404,6.5194277 C52.4938864,6.5194277 60.0748301,14.1363952 60.0748301,23.4992744 C60.0748301,23.548854 60.08721,23.5951873 60.0895681,23.6444719 L60.0895681,47.0481283 L66.5775401,47.0481283 L66.5775401,23.2221596 L66.5569069,23.2221596 Z" id="Path" fill="#084059"></path>
					<path d="M46.771702,23.2221596 C46.622848,10.3922469 36.1936342,0 23.3895355,0 C10.4925873,0 0,10.5415761 0,23.4992744 C0,36.4563824 10.4925873,46.9976634 23.3895355,46.9976634 C26.6118566,46.9976634 29.7333697,46.3501768 32.6682993,45.0752718 C34.3124731,44.3602035 35.0691231,42.4416485 34.3578662,40.7889938 C33.6463145,39.1372244 31.7353825,38.3761179 30.0920931,39.0917764 C27.9757132,40.0116558 25.7202063,40.4782356 23.3895355,40.4782356 C14.0703895,40.4782356 6.48915104,32.8618584 6.48915104,23.4992744 C6.48915104,14.1363952 14.0703895,6.5194277 23.3895355,6.5194277 C32.7086815,6.5194277 40.2896252,14.1363952 40.2896252,23.4992744 C40.2896252,23.548854 40.3020052,23.5951873 40.3043632,23.6444719 L40.3043632,47.0481283 L46.7923352,47.0481283 L46.7923352,23.2221596 L46.771702,23.2221596 Z" id="Path" fill="#18A5A7"></path>
					<path d="M66.5569069,23.2221596 C66.4077581,10.3922469 55.978839,0 43.1747404,0 C30.2777922,0 19.7852049,10.5415761 19.7852049,23.4992744 C19.7852049,36.4563824 30.2777922,46.9976634 43.1747404,46.9976634 C46.3967667,46.9976634 49.5185745,46.3501768 52.4535042,45.0752718 C54.0976779,44.3602035 54.854328,42.4416485 54.143071,40.7889938 C53.4312246,39.1372244 51.5205874,38.3761179 49.8770032,39.0917764 C47.760918,40.0116558 45.5054112,40.4782356 43.1747404,40.4782356 C33.8552996,40.4782356 26.2743559,32.8618584 26.2743559,23.4992744 C26.2743559,14.1363952 33.8552996,6.5194277 43.1747404,6.5194277 C52.4938864,6.5194277 60.0748301,14.1363952 60.0748301,23.4992744 C60.0748301,23.548854 60.08721,23.5951873 60.0895681,23.6444719 L60.0895681,47.0481283 L66.5775401,47.0481283 L66.5775401,23.2221596 L66.5569069,23.2221596 Z" id="Path" fill="#084059"></path>
				</g>
			</g>
		</g>
	</g>
</svg>