<?xml version="1.0" encoding="UTF-8"?>
<!DOCTYPE svg PUBLIC "-//W3C//DTD SVG 1.1//EN" "http://www.w3.org/Graphics/SVG/1.1/DTD/svg11.dtd">
<!-- Creator: CorelDRAW SE -->
<svg xmlns="http://www.w3.org/2000/svg" xml:space="preserve" width="1000px" height="1000px" version="1.1" style="shape-rendering:geometricPrecision; text-rendering:geometricPrecision; image-rendering:optimizeQuality; fill-rule:evenodd; clip-rule:evenodd"
viewBox="0 0 1000 1000"
 xmlns:xlink="http://www.w3.org/1999/xlink">
 <defs>
  <style type="text/css">
   <![CDATA[
    .fil0 {fill:none}
    .fil1 {fill:#575B69}
    .fil2 {fill:#E6E6E6}
    .fil3 {fill:#575B69;fill-rule:nonzero}
    .fil4 {fill:#B3B3B3;fill-rule:nonzero}
   ]]>
  </style>
 </defs>
 <g id="Ebene_x0020_1">
  <metadata id="CorelCorpID_0Corel-Layer"/>
  <rect class="fil0" width="1000" height="1000"/>
  <path class="fil1" d="M197 334c-3,14 -9,26 -11,42 -8,51 -6,94 8,142 16,55 47,110 86,152 8,8 34,29 45,36 21,13 44,25 71,34 29,10 50,22 67,39 17,16 32,38 36,72 4,-9 2,-36 36,-70 22,-23 37,-28 66,-39 42,-16 69,-33 101,-59l26 -26c35,-42 60,-83 76,-136 13,-45 15,-97 7,-144 -2,-15 -8,-30 -10,-43 10,-6 42,-8 52,-31 11,-24 -14,-39 -30,-47 -18,-10 -35,-20 -54,-30 -18,-9 -36,-20 -54,-29 -14,-8 -178,-95 -190,-104 -4,-3 -7,-6 -10,-10 -9,-12 -20,-13 -28,-4 -4,5 0,3 -9,11 -6,6 -17,11 -26,16 -19,9 -37,20 -54,30 -18,10 -36,19 -54,29l-109 59c-19,10 -36,20 -54,30 -15,8 -43,22 -35,47 7,22 36,24 51,33z"/>
  <g id="_771640248">
   <path class="fil2" d="M244 589c-1,-41 19,-77 43,-106 2,-3 4,-4 5,-6 -6,-5 -8,-10 -8,-22 1,-20 9,-39 24,-51 3,-2 6,-4 9,-6 -2,-4 -4,-15 -6,-20 -3,-11 0,-15 4,-24 -20,0 -80,-11 -103,-15 -19,75 -20,126 6,198 8,22 24,44 26,52z"/>
   <path class="fil2" d="M685 353c0,7 7,10 5,21 -1,8 -5,16 -5,24 11,10 20,18 26,33 6,15 8,38 -5,45 2,4 13,18 17,23 12,16 22,34 27,55 3,15 3,22 4,37 8,-13 18,-36 25,-51 21,-49 22,-115 13,-169 -2,-10 -6,-21 -7,-32 -14,1 -33,7 -49,9 -16,2 -35,5 -51,5z"/>
   <path class="fil2" d="M280 307c-45,1 -86,-12 -101,-12 4,3 63,16 72,18 122,26 296,29 419,14 26,-4 52,-8 77,-13 25,-4 49,-12 73,-18 -7,-1 -40,6 -50,8 -9,1 -47,5 -54,4 4,1 80,-13 88,-16 -7,-4 -131,7 -149,8 -123,10 -186,8 -307,0 -23,-1 -137,-12 -149,-10 23,12 69,13 81,17z"/>
   <path class="fil2" d="M545 388c6,1 13,7 19,10 15,7 14,1 22,1 1,15 -37,-6 -60,0l-1 12c10,3 26,5 28,26 0,8 -3,11 -3,16 0,2 13,15 27,-5 3,-4 3,-6 7,-9 2,6 -4,17 -7,20 15,-3 48,-46 50,-47 4,-3 6,-4 7,-8 3,-10 -2,-15 -10,-17 -7,-1 -17,-2 -25,-2 -10,-1 -17,-1 -27,-1 -5,0 -10,0 -14,0l-10 2c-2,1 -1,1 -3,2z"/>
   <path class="fil2" d="M478 440c-9,-3 -8,-10 -12,-18 -14,5 -8,23 0,29 8,6 18,14 32,15 27,2 59,-31 36,-44 -5,9 -3,11 -11,18 2,-6 7,-15 1,-20 -14,-11 -1,-31 -9,-46 -10,-20 -38,-14 -31,28 2,12 -2,14 -9,19 -7,4 1,14 3,19z"/>
   <path class="fil2" d="M527 280l24 0c-2,-19 -10,-40 -11,-60 2,1 1,0 2,2l17 58 20 0c-3,-24 -16,-56 -24,-78 -5,-12 -11,-23 -16,-35 -6,-11 -9,-26 -17,-35 1,7 4,13 6,20 3,15 10,59 6,70 -2,-4 -8,-39 -10,-48 -4,-15 -7,-30 -14,-44 0,8 3,28 4,37 1,14 1,27 1,41 1,15 1,23 5,38 2,11 5,23 7,34z"/>
   <path class="fil2" d="M371 394c11,-3 19,-5 25,5 -11,1 -22,0 -20,13 2,10 24,30 31,36 4,5 11,11 18,14 0,-6 -11,-11 -9,-24 6,2 2,7 13,16 2,2 7,5 10,6 4,0 8,-2 10,-6 1,-2 -9,-27 11,-39 7,-4 15,0 16,-9 2,-15 -26,-8 -33,-6 -5,2 -28,10 -29,-1 9,4 14,3 23,-2l20 -10c-24,-6 -53,-3 -78,2 -6,1 -7,1 -8,5z"/>
   <path class="fil2" d="M481 548l6 -27c-7,6 -16,22 -15,35 2,10 17,62 21,80 2,14 5,28 8,42 0,-1 5,-37 6,-42 3,-14 7,-27 10,-40 3,-13 7,-27 9,-40 1,-14 -14,-34 -14,-34 -1,6 4,18 4,26 -6,-6 -13,-24 -17,-30 -3,11 -12,21 -18,30z"/>
   <path class="fil2" d="M462 226c-1,-9 0,-14 -2,-22 -4,-18 10,-54 10,-59 -9,23 -20,42 -30,64 -10,23 -16,47 -23,71l21 0c3,-14 15,-47 15,-60 3,17 -6,50 -6,60l20 0c3,-11 6,-24 8,-35 3,-15 3,-22 3,-38 -1,-47 0,-37 8,-77 -5,7 -13,34 -16,45 -3,15 -4,38 -8,51z"/>
   <path class="fil2" d="M653 279c9,-3 12,-2 15,-4l-26 -50c9,4 30,35 35,43 6,9 6,8 18,7l-19 -31c-6,-10 -14,-20 -21,-28 -9,-10 -42,-43 -52,-49 8,9 31,30 33,43 -5,-3 -11,-13 -16,-17 -11,-13 -20,-23 -34,-33 -13,-10 -14,-14 -18,-16 4,6 8,10 12,15 4,5 8,11 11,16 7,13 14,23 21,35l31 50c4,6 9,11 10,19z"/>
   <path class="fil2" d="M365 604c-22,-17 -24,-41 -32,-60 -2,-3 -4,-6 -5,-10 -2,-3 -3,-9 -5,-12 -2,4 -8,23 -8,27 -1,25 11,45 28,60 18,16 29,21 43,46 7,12 24,28 36,35 -7,-5 -23,-24 -29,-33 -15,-23 -29,-68 -30,-97 -1,-11 -1,-21 -1,-31 0,-11 -2,-20 -3,-30 1,19 -10,36 0,81 1,7 5,18 6,24z"/>
   <path class="fil2" d="M479 281l37 0 -8 -78c-2,8 -4,15 -8,24 -4,-5 -1,-41 -1,-55l-4 -53c-2,3 -10,68 -11,78 -1,14 -1,28 -2,43 0,8 -4,35 -3,41z"/>
   <path class="fil2" d="M579 688c21,-9 38,-49 58,-64 16,-13 32,-26 41,-46 9,-18 4,-40 -1,-59 -2,11 -5,15 -9,24 -9,21 -5,33 -27,55l-8 8c4,-5 12,-37 13,-47 2,-18 -2,-41 -4,-58 -5,11 -2,44 -3,58 -1,20 -13,55 -21,73 -7,16 -22,39 -35,51 -1,1 -1,1 -2,2 -2,3 -1,0 -2,3z"/>
   <path class="fil2" d="M620 279l19 1c-5,-16 -41,-83 -54,-97l-15 -15c-4,-5 -24,-32 -27,-34 3,10 13,29 18,38l39 72c3,6 6,12 10,18 2,3 3,5 5,8 2,4 3,6 5,9z"/>
   <path class="fil2" d="M473 387c-1,-8 -5,-29 -8,-34 -23,-4 -57,-8 -77,5 -5,3 -6,6 -10,7 1,-9 4,-10 7,-16 -4,5 -5,2 -9,11 -3,5 -6,11 -2,15 12,15 42,-12 70,-5 8,2 18,8 24,13l5 4z"/>
   <path class="fil2" d="M365 279l17 0c6,-11 12,-22 18,-35 8,-17 46,-102 47,-110 -7,11 -16,21 -23,32 -18,23 -28,48 -41,74 -4,9 -16,30 -18,39z"/>
   <path class="fil2" d="M537 353l-7 32c6,-2 7,-8 26,-14 29,-8 51,14 68,7 9,-5 3,-25 -4,-28 2,5 5,10 3,16 -14,-18 -38,-19 -62,-16 -9,1 -14,4 -24,3z"/>
   <path class="fil2" d="M466 669c4,-24 -5,-76 -5,-107 0,-9 5,-27 4,-33 -12,19 -23,42 -23,69 0,20 14,60 24,71z"/>
   <path class="fil2" d="M535 670c0,0 0,-1 0,-1l7 -15c3,-5 5,-10 7,-16 3,-13 7,-25 8,-39 0,-11 -4,-29 -7,-39 -4,-11 -13,-24 -18,-29 1,12 5,17 5,31 0,12 -1,24 -1,36 -2,25 -1,47 -1,72z"/>
   <path class="fil2" d="M336 276l14 1c5,-9 11,-17 17,-27l47 -82c-7,2 -29,29 -35,34 -4,4 -7,9 -9,15 -3,5 -7,8 -10,13l-24 46z"/>
   <path class="fil2" d="M346 694c-5,-2 -26,-21 -29,-24 -10,-13 -14,-17 -24,-31 -7,-10 -14,-23 -18,-36 -2,-8 -12,-37 -11,-43 -4,43 -3,59 19,88 12,17 44,38 63,46z"/>
   <path class="fil2" d="M332 662c-6,-18 -20,-34 -23,-55 -4,-27 -4,-15 -10,-31l-9 -31c-6,30 -7,42 5,69 8,19 19,26 28,36 2,4 6,9 9,12z"/>
   <path class="fil2" d="M670 656l9 -10c2,-2 3,-3 5,-5 7,-9 15,-21 21,-31 11,-23 9,-42 0,-66 -2,26 -11,36 -15,59 -3,11 -4,18 -9,28l-11 25z"/>
   <path class="fil2" d="M656 691c16,-8 30,-20 44,-31l12 -12c21,-23 22,-42 20,-81 -3,6 -3,15 -5,21 -5,17 -14,37 -23,51 -11,17 -22,27 -35,40 -4,4 -10,8 -13,12z"/>
   <path class="fil2" d="M394 280l11 0 61 -144 -20 35c-7,11 -12,23 -19,35 -6,12 -11,25 -17,37 -5,12 -12,25 -16,37z"/>
   <path class="fil2" d="M454 697c-3,-6 -8,-12 -12,-19 -14,-23 -14,-60 -22,-73 -7,8 -12,8 -11,24 1,18 18,36 27,48 5,6 13,17 18,20z"/>
   <path class="fil2" d="M330 242l4 0c0,0 0,0 0,0l2 -1c0,0 0,0 0,0l1 0c2,2 1,4 2,7 4,-3 10,-12 14,-16l15 -15c3,-3 4,-9 7,-14 5,-8 11,-15 17,-22 6,-8 15,-17 17,-22l-21 18c-3,3 -6,6 -10,10l-10 10c-10,9 -9,9 -16,15 -3,3 -3,3 -5,6 -5,7 -14,16 -17,24z"/>
   <path class="fil2" d="M592 280l14 0 -13 -29c-12,-28 -26,-59 -44,-83l22 55c4,10 7,19 11,29 3,9 8,19 10,28z"/>
   <path class="fil2" d="M548 695c3,-2 9,-10 12,-14 11,-15 39,-49 25,-68 -3,-5 -5,-6 -9,-9 -3,16 -10,59 -17,73 -3,7 -8,12 -11,18z"/>
   <path class="fil2" d="M572 578c5,-14 -2,-52 -8,-64 -4,-8 -9,-15 -16,-21 -6,-4 -17,-11 -26,-13l17 20c18,24 32,45 33,78z"/>
   <path class="fil2" d="M429 556l1 22c2,-28 12,-58 29,-78l9 -10c2,-4 4,-8 8,-9 -13,2 -30,16 -36,25 -7,11 -12,33 -11,50z"/>
   <path class="fil2" d="M262 259c4,-1 8,-4 11,-6 25,-18 65,-46 89,-65 6,-5 12,-9 19,-15 7,-5 7,-2 15,-10 4,-3 23,-16 24,-19 -8,4 -14,8 -20,13l-30 21c-3,2 -7,5 -10,8 -7,5 -13,10 -20,14 -12,8 -73,45 -78,59z"/>
   <path class="fil2" d="M284 269l9 2c5,-8 16,-21 22,-26l47 -48c4,-4 7,-8 12,-12 4,-4 8,-7 12,-12l-27 22c-4,5 -8,7 -13,12 -14,15 -59,47 -62,62z"/>
   <path class="fil2" d="M594 564c1,-19 -3,-36 -11,-51 -4,-8 -8,-12 -13,-18 -4,-3 -13,-13 -18,-14 5,7 7,5 13,18 9,19 11,19 19,43 3,7 8,18 10,22z"/>
   <path class="fil2" d="M409 565c3,-2 12,-37 15,-44 4,-10 10,-26 18,-34 3,-3 2,-1 3,-5 -10,5 -23,21 -28,33 -3,7 -6,14 -8,22 -1,5 -1,23 0,28z"/>
   <path class="fil2" d="M707 272l11 -1c-8,-12 -25,-28 -35,-37 -14,-13 -21,-22 -38,-34l32 35c9,9 6,5 16,17 6,7 8,12 14,20z"/>
   <path class="fil2" d="M251 247l44 -28c8,-5 43,-23 44,-30 -8,3 -16,9 -23,13 -12,6 -64,34 -65,45z"/>
   <path class="fil2" d="M330 242c-3,2 -10,11 -12,16l-9 13c-2,3 -2,0 -2,5 12,-3 8,7 26,-19l5 -6c0,-1 0,-1 0,-1 0,0 0,-1 0,-1l1 -1c-1,-3 0,-5 -2,-7l-1 0c0,0 0,0 0,0l-2 1c0,0 0,0 0,0l-4 0z"/>
   <path class="fil2" d="M392 496c-4,-12 -12,-22 -19,-31 -3,-4 -12,-13 -17,-19 -1,-3 -3,-6 -5,-8 1,16 17,38 27,48 3,2 4,3 7,5 3,3 2,5 7,5z"/>
   <path class="fil2" d="M750 246c-4,-2 -11,-10 -20,-16 -8,-5 -15,-10 -23,-15 -12,-6 -38,-24 -49,-27 3,4 41,29 44,31 8,4 15,10 24,14 3,2 8,4 12,6 3,2 8,7 12,7z"/>
   <path class="fil2" d="M482 367c7,-4 6,-11 19,-11 10,0 16,5 19,10l3 -16 -43 -1c1,7 2,10 2,18z"/>
   <path class="fil2" d="M736 261c-1,-9 -40,-35 -52,-42l-38 -26c-14,-9 -42,-35 -55,-41l145 109z"/>
   <path class="fil2" d="M612 494c7,-1 19,-18 23,-23 4,-8 12,-22 13,-32 -16,27 -10,16 -29,39 -3,5 -5,10 -7,16z"/>
   <path class="fil2" d="M408 480c8,-2 6,-7 2,-14 -5,-10 -25,-29 -33,-35 8,9 27,34 31,49z"/>
   <path class="fil2" d="M683 419c2,6 8,14 10,22 2,11 -9,21 2,18 12,-3 2,-35 -12,-40z"/>
   <path class="fil2" d="M310 458c-1,-9 -7,-9 -2,-21 3,-6 7,-12 9,-17 -15,4 -28,45 -7,38z"/>
   <path class="fil2" d="M592 478c2,-1 1,1 3,-2l5 -11c7,-13 21,-26 27,-35 -4,4 -46,36 -35,48z"/>
  </g>
  <g id="_771637896">
   <path class="fil1" d="M394 369c4,-1 5,-2 8,-5 33,-21 50,2 64,12 -4,-13 -15,-23 -32,-24 -19,-1 -36,3 -40,17z"/>
   <path class="fil1" d="M538 376c4,-3 15,-16 32,-21 17,-4 29,8 38,13 -2,-19 -41,-23 -58,-9 -4,4 -11,10 -12,17z"/>
  </g>
  <path class="fil3" d="M174 916l0 3c0,3 0,5 -1,6 -1,2 -3,2 -5,2 -3,0 -4,0 -5,-2 -1,-1 -2,-3 -2,-6 0,-2 0,-5 1,-9 0,-4 0,-6 0,-7 0,-3 0,-6 0,-10 -1,-3 -1,-5 -1,-6 0,-2 1,-4 2,-5 2,-2 3,-3 5,-3 2,0 4,1 5,3 1,1 1,4 1,8l0 3c0,6 3,11 9,15 6,4 14,6 24,6 7,0 13,-2 17,-5 4,-3 6,-8 6,-13 0,-3 0,-5 -2,-7 -1,-2 -3,-4 -5,-5 -2,-1 -6,-2 -13,-3 -7,-1 -12,-2 -16,-2 -10,-3 -18,-6 -23,-11 -4,-4 -7,-11 -7,-19 0,-9 4,-17 11,-22 6,-5 16,-8 27,-8 6,0 11,1 16,2 4,2 8,4 12,7 0,0 0,-1 0,-1 0,0 0,-1 0,-2 0,-2 0,-3 1,-4 1,-2 2,-2 4,-2 2,0 3,0 4,2 1,1 2,3 2,4 0,0 0,1 0,2 -1,7 -2,14 -2,22l0 6c0,2 0,4 -1,5 -1,1 -3,2 -5,2 -2,0 -3,-1 -4,-2 -1,-1 -1,-3 -1,-6l0 -3c0,-6 -3,-11 -7,-14 -5,-4 -11,-5 -19,-5 -7,0 -12,1 -17,4 -4,3 -6,7 -6,13 0,2 1,4 1,5 1,2 2,4 4,5 3,2 10,4 20,5 4,0 7,1 10,1 11,2 19,5 24,9 5,5 8,11 8,19 0,10 -4,19 -11,25 -8,6 -17,9 -29,9 -7,0 -13,-1 -18,-3 -6,-1 -10,-4 -14,-8z"/>
  <path id="1" class="fil3" d="M279 875l0 0c0,12 3,21 9,28 5,7 13,11 22,11 6,0 11,-1 15,-4 4,-2 7,-5 11,-9 1,-2 2,-5 4,-9 2,-5 4,-8 8,-8 2,0 3,0 5,2 1,1 2,3 2,5 0,3 -1,6 -3,9 -1,4 -4,8 -6,11 -5,6 -10,10 -15,12 -6,3 -13,4 -21,4 -15,0 -26,-5 -35,-15 -8,-9 -13,-23 -13,-39 0,-17 5,-30 13,-40 9,-10 20,-15 35,-15 14,0 25,5 33,13 8,8 13,20 13,34 0,4 -1,6 -3,8 -1,1 -4,2 -8,2l-3 0 -63 0zm1 -14l58 0 0 -1c0,-8 -3,-15 -8,-20 -5,-6 -12,-8 -20,-8 -9,0 -15,2 -21,8 -5,5 -8,12 -9,21z"/>
  <path id="2" class="fil3" d="M464 868c0,-13 -2,-22 -6,-27 -4,-6 -11,-8 -21,-8 -11,0 -19,3 -24,11 -5,7 -7,19 -7,35l0 21c0,5 0,8 1,10 1,1 3,2 6,2 0,0 1,0 3,-1 2,0 3,0 4,0 3,0 5,0 6,2 2,1 2,3 2,5 0,2 0,4 -1,5 -2,1 -4,2 -6,2 0,0 -3,-1 -9,-1 -5,0 -11,-1 -16,-1 -4,0 -9,1 -14,1 -5,0 -7,1 -8,1 -3,0 -5,-1 -6,-2 -2,-1 -2,-2 -2,-5 0,-2 1,-4 2,-5 1,-2 4,-2 6,-2 1,0 2,0 3,0 2,1 3,1 3,1 4,0 7,-1 8,-2 2,-2 2,-5 2,-11l0 -50c0,-6 0,-10 -2,-12 -1,-2 -4,-3 -8,-3l-6 0c-3,0 -5,-1 -6,-1 -2,-1 -2,-3 -2,-5 0,-2 1,-4 2,-5 2,-1 4,-2 6,-2 1,0 2,0 4,1 2,0 4,0 5,0 5,0 9,0 13,-1 1,0 2,0 2,0 3,0 4,1 5,2 1,1 2,3 2,7l0 8c5,-7 10,-11 15,-14 6,-3 12,-4 20,-4 14,0 24,3 31,10 6,7 9,18 9,34l0 33c0,7 1,11 2,13 2,1 4,2 8,2 1,0 2,0 3,-1 1,0 2,0 3,0 3,0 5,0 6,2 2,1 2,3 2,5 0,2 0,4 -2,5 -1,1 -3,2 -6,2 -1,0 -4,-1 -9,-1 -5,0 -9,-1 -13,-1 -5,0 -11,1 -16,1 -6,0 -9,1 -9,1 -2,0 -4,-1 -5,-2 -2,-1 -2,-3 -2,-5 0,-2 0,-4 2,-5 1,-2 3,-2 6,-2 1,0 2,0 4,0 2,1 3,1 3,1 3,0 5,-1 6,-2 1,-2 1,-6 1,-13l0 -29z"/>
  <path id="3" class="fil3" d="M529 916l0 3c0,3 -1,5 -2,6 -1,2 -3,2 -5,2 -2,0 -4,0 -5,-2 -1,-1 -2,-3 -2,-6 0,-2 1,-5 1,-9 0,-4 1,-6 1,-7 0,-3 -1,-6 -1,-10 0,-3 -1,-5 -1,-6 0,-2 1,-4 3,-5 1,-2 3,-3 5,-3 2,0 3,1 4,3 1,1 2,4 2,8l0 3c0,6 3,11 9,15 5,4 13,6 23,6 8,0 13,-2 18,-5 4,-3 6,-8 6,-13 0,-3 -1,-5 -2,-7 -2,-2 -3,-4 -6,-5 -2,-1 -6,-2 -13,-3 -6,-1 -12,-2 -16,-2 -10,-3 -18,-6 -22,-11 -5,-4 -7,-11 -7,-19 0,-9 3,-17 10,-22 7,-5 16,-8 28,-8 5,0 10,1 15,2 5,2 9,4 12,7 0,0 0,-1 0,-1 0,0 0,-1 0,-2 0,-2 1,-3 2,-4 0,-2 2,-2 4,-2 1,0 2,0 3,2 1,1 2,3 2,4 0,0 0,1 0,2 -1,7 -1,14 -1,22l0 6c0,2 -1,4 -2,5 -1,1 -2,2 -4,2 -2,0 -4,-1 -5,-2 -1,-1 -1,-3 -1,-6l0 -3c0,-6 -2,-11 -7,-14 -4,-4 -10,-5 -18,-5 -7,0 -13,1 -17,4 -4,3 -6,7 -6,13 0,2 0,4 1,5 1,2 2,4 3,5 4,2 10,4 20,5 4,0 8,1 10,1 11,2 19,5 25,9 5,5 7,11 7,19 0,10 -3,19 -11,25 -7,6 -17,9 -29,9 -7,0 -13,-1 -18,-3 -5,-1 -10,-4 -13,-8z"/>
  <path id="4" class="fil4" d="M683 887l0 -16c-4,3 -14,6 -28,8l0 0c-10,1 -17,3 -21,6 -3,3 -5,7 -5,12 0,5 2,9 6,12 3,3 8,5 14,5 10,0 18,-3 25,-8 6,-5 9,-11 9,-19zm2 24c-4,5 -9,9 -15,12 -6,3 -13,4 -21,4 -12,0 -20,-2 -26,-8 -6,-5 -9,-13 -9,-22 0,-10 3,-16 8,-21 5,-5 14,-8 26,-10 1,0 2,0 3,0 21,-3 31,-9 31,-18 0,-5 -2,-9 -6,-12 -4,-3 -9,-5 -16,-5 -6,0 -11,1 -16,3 -4,2 -6,4 -6,6 0,1 1,2 2,4 2,2 3,4 3,5 0,3 -1,6 -3,7 -2,2 -5,3 -8,3 -4,0 -7,-1 -9,-4 -2,-2 -3,-6 -3,-10 0,-8 4,-14 11,-19 8,-5 18,-8 31,-8 13,0 22,3 28,9 5,5 8,15 8,27l0 48c0,4 1,8 2,9 1,2 2,3 5,3 2,0 4,-1 5,-3 1,-2 2,-4 2,-8l0 -11c0,-3 0,-5 1,-6 1,-2 3,-3 5,-3 2,0 4,1 5,3 1,1 1,3 1,7l0 15c0,6 -2,11 -5,14 -4,3 -9,5 -16,5 -5,0 -10,-1 -13,-4 -3,-3 -4,-7 -5,-12z"/>
  <path id="5" class="fil4" d="M753 897l0 -41c0,-10 0,-16 -2,-18 -1,-3 -4,-4 -8,-4l-8 0c-2,0 -4,0 -5,-1 -1,-1 -1,-3 -1,-5 0,-2 0,-4 2,-5 1,-1 3,-2 5,-2 0,0 2,0 5,1 2,0 5,0 7,0 4,0 8,0 12,-1 1,0 2,0 2,0 3,0 5,0 6,2 1,1 1,3 1,7l0 67c0,7 1,11 2,13 2,1 4,2 8,2 1,0 2,0 3,0 1,-1 2,-1 3,-1 3,0 5,1 6,2 2,1 3,3 3,5 0,3 -1,4 -2,5 -2,1 -4,2 -7,2 -1,0 -3,-1 -8,-1 -5,0 -10,-1 -14,-1 -7,0 -15,1 -23,1 -2,1 -3,1 -3,1 -3,0 -5,-1 -6,-2 -2,-1 -2,-3 -2,-5 0,-2 0,-4 2,-5 1,-1 4,-2 6,-2 1,0 2,0 3,1 2,0 3,0 3,0 5,0 7,-1 9,-2 1,-2 1,-6 1,-13zm-6 -96c0,-3 1,-5 3,-8 3,-2 5,-3 8,-3 4,0 6,1 8,3 2,3 3,5 3,8 0,3 -1,6 -3,8 -2,2 -5,4 -8,4 -3,0 -5,-2 -8,-4 -2,-2 -3,-4 -3,-8z"/>
 </g>
</svg>
