<?xml version="1.0" encoding="UTF-8" standalone="no"?><!DOCTYPE svg PUBLIC "-//W3C//DTD SVG 1.1//EN" "http://www.w3.org/Graphics/SVG/1.1/DTD/svg11.dtd"><svg width="100%" height="100%" viewBox="0 0 961 961" version="1.1" xmlns="http://www.w3.org/2000/svg" xmlns:xlink="http://www.w3.org/1999/xlink" xml:space="preserve" xmlns:serif="http://www.serif.com/" style="fill-rule:evenodd;clip-rule:evenodd;stroke-linejoin:round;stroke-miterlimit:2;"><g id="Ebene-1" serif:id="Ebene 1"><path d="M188.844,320.642c-2.949,13.914 -7.906,24.492 -10.384,40.462c-7.515,48.428 -5.974,90.046 7.88,136.415c15.69,52.515 45.293,105.594 82.828,145.559c7.586,8.076 32.44,28.053 42.538,34.244c20.707,12.696 42.887,24.63 68.313,33.406c28.117,9.706 48.419,20.885 64.815,36.921c16.016,15.665 30.276,36.75 34.081,68.937c3.905,-8.027 1.915,-33.748 34.489,-66.604c21.743,-21.931 35.542,-26.772 63.851,-37.804c39.597,-15.431 66.326,-31.719 96.279,-56.377l25.49,-25.332c33.503,-40.012 57.884,-79.423 72.684,-130.782c12.373,-42.941 14.44,-92.616 6.953,-137.586c-2.356,-14.15 -8.019,-28.69 -9.552,-41.459c9.101,-6.219 40.643,-8.041 50.112,-29.781c10.094,-23.174 -14.238,-37.811 -28.86,-45.482c-17.113,-8.979 -33.678,-18.913 -51.709,-28.217c-17.849,-9.211 -34.709,-19.269 -52.476,-28.487c-13.188,-6.843 -170.88,-90.845 -182.096,-99.151c-3.84,-2.844 -6.78,-6.23 -9.624,-10.095c-8.593,-11.68 -19.453,-12.624 -26.569,-3.945c-4.574,5.578 -0.572,3.506 -8.683,10.999c-5.868,5.42 -16.244,10.396 -25.55,14.964c-18.023,8.848 -34.869,19.525 -51.862,29.065c-17.143,9.625 -34.383,18.673 -51.625,28.275l-104.787,56.144c-17.731,9.637 -34.799,18.915 -52.098,28.863c-13.836,7.957 -41.186,20.962 -33.572,45.129c6.707,21.288 35.189,22.755 49.134,31.719" style="fill:#2c303c;"/><path d="M233.895,565.747c-0.918,-39.297 18.172,-73.899 42.066,-102.483c1.918,-2.295 3.073,-3.148 4.774,-5.468c-6.183,-4.84 -8.118,-9.92 -7.936,-20.629c0.337,-19.857 8.484,-37.504 23.333,-49.226c2.879,-2.273 5.54,-3.58 8.171,-6.038c-2.198,-3.385 -4.127,-14.591 -5.551,-19.492c-2.971,-10.226 0.076,-13.996 3.27,-22.508c-18.478,0.189 -76.55,-10.767 -98.131,-14.057c-18.74,71.687 -19.769,120.462 5.707,190.023c7.75,21.161 22.253,41.67 24.297,49.878" style="fill:#e6e6e6;"/><path d="M657.346,339.273c0.651,5.925 6.867,9.498 5.307,19.766c-1.154,7.589 -4.965,15.196 -5.046,23.129c10.432,9.707 18.956,16.848 24.804,31.444c5.681,14.179 7.481,36.566 -4.998,43.016c1.845,4.359 13.026,17.16 16.694,22.061c11.666,15.586 21.165,33.379 25.761,53.128c3.375,14.502 2.583,21.5 3.594,35.741c7.614,-13.058 17.616,-34.563 23.987,-48.945c20.967,-47.331 21.988,-110.74 12.699,-162.039c-1.858,-10.259 -5.521,-20.876 -6.56,-30.758c-13.541,0.927 -31.932,5.981 -46.836,7.877c-15.742,2.004 -33.667,4.869 -49.406,5.58" style="fill:#e6e6e6;"/><path d="M268.509,294.827c-42.665,0.605 -81.82,-11.808 -96.588,-11.285c3.627,2.095 60.459,15.396 69.08,17.222c116.714,24.723 284.294,27.239 402.063,12.729c24.935,-3.073 50.226,-7.018 74.461,-11.68c23.901,-4.598 47.08,-12.254 69.702,-17.679c-6.626,-0.579 -38.427,5.807 -47.898,7.347c-8.852,1.44 -44.878,4.753 -51.743,3.745c3.774,1.161 76.543,-11.655 83.906,-14.773c-6.57,-4.023 -125.23,6.414 -142.925,7.849c-117.516,9.526 -178.288,7.234 -294.386,0.024c-22.11,-1.374 -131.614,-11.591 -143.29,-9.589c21.959,10.977 66.692,12.35 77.618,16.09" style="fill:#e6e6e6;"/><path d="M523.333,372.4c5.734,1.382 12.509,6.904 18.186,9.725c14.299,7.104 13.2,0.871 21.205,0.626c0.505,15.144 -36.1,-5.728 -58.076,-0.087l-0.689,12.277c9.786,2.634 25.336,4.535 26.478,24.549c0.447,7.817 -2.305,10.195 -2.537,15.612c0.567,1.867 12.851,14.006 26.04,-5.199c2.421,-3.525 3.072,-5.92 6.236,-8.306c2.838,5.828 -3.444,16.104 -5.859,19.426c13.86,-2.976 46.024,-44.385 47.919,-45.874c3.547,-2.791 5.228,-3.027 6.651,-7.732c2.837,-9.377 -1.742,-13.917 -9.452,-15.482c-6.876,-1.396 -17.157,-2.199 -24.328,-2.767c-9.609,-0.761 -16.808,-0.554 -26.348,-0.423c-4.538,0.061 -8.873,-0.133 -13.421,0.218l-8.919,1.367c-2.38,1.011 -1.755,0.801 -3.086,2.07" style="fill:#e6e6e6;"/><path d="M458.911,422.59c-8.229,-2.762 -7.796,-9.335 -11.868,-17.203c-13.238,4.535 -7.289,21.964 0.065,27.569c7.866,5.996 17.919,13.247 31.1,14.422c25.629,2.285 56.421,-29.826 34.224,-42.505c-4.515,8.466 -2.505,10.929 -10.349,17.47c1.511,-6.07 6.775,-14.088 0.75,-19.14c-12.907,-10.823 -1.201,-29.687 -8.547,-44.402c-9.544,-19.117 -36.015,-13.121 -29.928,26.81c1.818,11.93 -1.325,13.609 -8.074,18.234c-6.67,4.569 0.717,14.191 2.627,18.745" style="fill:#e6e6e6;"/><path d="M506.066,269.022l22.802,-0.011c-2.11,-18.567 -9.174,-38.808 -10.447,-58.274c1.503,1.423 0.631,0.028 1.916,2.639l15.967,55.394l19.794,0.341c-3.047,-23.151 -15.613,-54.223 -23.495,-75.221c-4.208,-11.209 -10.449,-22.45 -15.584,-33.273c-5.278,-11.128 -8.656,-25.026 -15.964,-33.879c1.134,6.591 3.843,12.813 5.358,19.56c3.207,14.294 10.536,56.647 6.019,66.728c-1.841,-3.687 -7.254,-37.626 -9.392,-45.644c-3.862,-14.477 -7.175,-29.239 -13.1,-42.366c-0.578,7.413 2.552,26.526 3.238,35.419c0.995,12.903 0.905,26.096 1.456,39.056c0.617,14.511 0.949,22.729 4.267,36.303c2.686,10.991 5.358,22.332 7.165,33.228" style="fill:#e6e6e6;"/><path d="M355.747,378.322c11.147,-2.673 18.933,-5.357 24.101,4.881c-9.898,1.099 -20.41,-0.436 -18.541,12.133c1.396,9.392 22.793,28.683 29.115,35.106c4.313,4.382 11.124,10.111 17.802,13.468c-0.246,-5.817 -10.721,-11.068 -8.712,-23.162c5.8,1.632 1.741,6.115 12.169,15.494c1.986,1.786 6.432,4.602 9.561,4.898c3.911,0.369 8.223,-1.613 9.506,-4.976c0.969,-2.542 -8.445,-26.256 10.893,-37.633c7.12,-4.189 14.37,0.127 15.339,-8.311c1.761,-15.337 -24.515,-7.943 -31.6,-5.86c-5.37,1.579 -26.755,9.194 -28.268,-1.123c9.241,3.791 14.069,2.237 22.107,-1.885l19.608,-9.39c-23.053,-6.646 -51.443,-3.099 -75.281,1.525c-5.12,0.993 -6.348,0.802 -7.799,4.835" style="fill:#e6e6e6;"/><path d="M462.182,525.918l5.052,-25.302c-5.974,4.977 -15.18,20.379 -13.713,32.99c1.17,10.055 15.499,59.654 19.294,77.057c2.856,13.094 5.42,26.663 8.479,39.77c0.046,-0.094 4.769,-35.105 5.843,-40.28c2.685,-12.945 6.542,-25.041 9.447,-38.343c2.72,-12.455 6.733,-25.487 8.257,-38.439c1.529,-13.005 -13.521,-32.115 -13.522,-32.118c-0.552,5.567 4.415,16.79 4.273,24.81c-5.834,-5.816 -12.951,-23.363 -16.242,-28.89c-3.184,10.871 -11.57,20.052 -17.168,28.745" style="fill:#e6e6e6;"/><path d="M443.529,216.824c-0.932,-8.082 0.094,-12.899 -1.67,-20.7c-3.892,-17.205 8.953,-52.131 8.997,-56.657c-8.459,21.448 -19.305,39.956 -28.388,61.398c-9.224,21.776 -15.429,44.776 -21.738,67.811l19.444,0.27c3.643,-13.874 14.684,-45.148 14.894,-57.556c2.954,15.88 -6.355,47.911 -6.327,57.295l19.895,-0.071c2.793,-10.419 5.328,-22.407 7.511,-32.98c3.107,-15.046 2.89,-21.422 2.536,-37.135c-1.001,-44.478 0.455,-35.481 7.926,-73.899c-4.973,6.707 -12.573,32.936 -14.936,43.189c-3.376,14.649 -4.431,36.475 -8.144,49.035" style="fill:#e6e6e6;"/><path d="M627.341,267.394c8.115,-1.973 10.938,-1.322 14.223,-3.548l-25.45,-47.57c8.622,3.244 29.331,32.862 34.098,40.593c5.536,8.978 5.636,7.878 17.267,7.421l-18.343,-30.227c-5.938,-9.645 -13.872,-18.739 -20.779,-26.934c-7.939,-9.421 -40.331,-41.24 -49.41,-47.19c7.851,9.413 29.587,29.274 31.914,41.497c-5.275,-2.8 -11.147,-11.969 -15.265,-16.578c-10.882,-12.179 -19.468,-21.963 -32.889,-31.48c-12.85,-9.113 -13.782,-13.189 -17.357,-15.256c3.708,5.858 7.375,9.544 11.576,14.79c3.415,4.266 7.61,10.228 10.555,15.388c6.685,11.71 13.057,21.614 19.832,33.127l30.335,48.554c3.336,5.276 8.373,10.502 9.693,17.413" style="fill:#e6e6e6;"/><path d="M350.264,580.208c-20.741,-17.003 -23.298,-40.178 -31.039,-57.759c-1.552,-3.525 -3.181,-6.063 -4.804,-9.747c-1.506,-3.419 -2.724,-8.496 -4.382,-11.461c-1.583,3.468 -7.176,21.735 -7.433,26.179c-1.364,23.649 10.252,43.011 26.775,57.505c17.279,15.157 27.738,20.288 41.569,43.585c6.771,11.407 22.561,27.226 34.147,33.656c-6.679,-4.721 -22.143,-23.232 -27.74,-31.812c-14.359,-22.009 -28.084,-65.308 -29.316,-93.171c-0.439,-9.929 -0.124,-19.549 -0.242,-29.428c-0.126,-10.436 -2.18,-18.635 -3.082,-28.775c0.759,18.03 -10.109,35.095 -0.431,77.662c1.537,6.758 5.362,17.517 5.978,23.566" style="fill:#e6e6e6;"/><path d="M460.23,269.364l34.911,0.211l-7.27,-74.574c-2.269,7.563 -4.295,14.64 -7.614,22.796c-4.106,-4.493 -1.112,-39.605 -1.377,-52.562l-3.435,-51.356c-2.356,3.712 -10.26,65.431 -11.065,75.252c-1.095,13.378 -0.43,27.25 -1.319,40.886c-0.536,8.223 -4.343,33.718 -2.831,39.347" style="fill:#e6e6e6;"/><path d="M555.699,660.843c20.13,-8.535 36.47,-47.249 55.393,-61.675c16.015,-12.21 30.711,-25.107 39.882,-44.202c8.534,-17.769 3.538,-38.606 -1.206,-56.277c-2.174,9.681 -4.209,14.25 -8.152,23.045c-9.039,20.161 -5.6,31.162 -26.352,52.532l-7.864,7.821c4.187,-5.094 11.872,-35.715 12.797,-45.249c1.696,-17.483 -1.589,-39.124 -3.882,-56.207c-5.008,10.735 -2.065,42.388 -2.875,56.198c-1.104,18.826 -12.591,52.266 -20.188,70.353c-6.427,15.3 -21.373,36.673 -33.519,48.493c-0.96,0.933 -1.471,1.282 -2.144,2.126c-2.03,2.548 -0.479,-0.093 -1.89,3.042" style="fill:#e6e6e6;"/><path d="M595.465,268.206l18.076,0.175c-4.705,-15.28 -39.668,-79.417 -51.699,-92.367l-14.284,-14.803c-4.42,-5.196 -23.397,-30.87 -25.876,-32.453c2.471,9.91 12.11,27.744 16.826,36.349l37.077,68.807c3.14,6.012 6.205,11.835 9.758,17.243c2.093,3.187 3.531,5.007 5.313,8.157c2.02,3.571 2.37,6.11 4.809,8.892" style="fill:#e6e6e6;"/><path d="M453.909,371.049c-1.053,-7.274 -4.522,-27.575 -7.903,-32.477c-22.006,-3.677 -54.612,-7.197 -73.913,4.974c-4.298,2.71 -5.022,5.542 -8.913,7.332c0.595,-8.671 3.93,-9.836 6.544,-15.923c-3.718,4.421 -4.726,1.603 -9.225,10.42c-2.395,4.694 -5.284,10.375 -1.517,14.797c11.923,13.993 40.317,-11.315 66.994,-4.791c7.508,1.836 17.855,7.669 23.737,12.606l4.197,3.062Z" style="fill:#e6e6e6;"/><path d="M350.347,267.888l16.735,0.011c5.081,-10.879 11.122,-21.508 16.476,-33.254c7.816,-17.146 45.006,-98.726 45.333,-106.343c-6.531,11.061 -14.787,20.545 -22.29,30.711c-16.875,22.863 -26.173,46.248 -38.71,71.337c-4.404,8.816 -15.584,29.058 -17.544,37.538" style="fill:#e6e6e6;"/><path d="M515.625,338.522l-6.609,31.445c5.539,-2.639 6.057,-8.172 25.127,-13.841c27.315,-8.12 48.124,13.859 64.581,6.448c8.972,-4.04 3.574,-23.351 -3.648,-26.429c2.327,4.933 4.928,9.246 3.239,15.65c-13.349,-17.651 -37.118,-18.197 -59.705,-15.831c-8.602,0.901 -13.962,3.513 -22.985,2.558" style="fill:#e6e6e6;"/><path d="M447.271,641.769c3.825,-22.307 -4.762,-72.224 -4.385,-101.848c0.12,-9.422 4.554,-26.411 3.829,-31.945c-11.487,18.038 -21.931,39.759 -22.397,66.213c-0.328,18.677 13.539,57.657 22.953,67.58" style="fill:#e6e6e6;"/><path d="M513.15,643.164c0.225,-0.206 0.523,-0.85 0.617,-0.672l6.875,-14.406c2.424,-5.524 4.209,-9.545 6.056,-15.729c3.563,-11.932 7.289,-23.914 7.56,-37.106c0.221,-10.765 -3.067,-28.496 -6.647,-38.038c-3.673,-9.788 -11.804,-22.394 -17.019,-27.591c1.455,11.708 5.039,16.718 4.85,30.304c-0.155,11.129 -0.624,22.773 -1.355,33.877c-1.591,24.214 -0.94,45.438 -0.936,69.361" style="fill:#e6e6e6;"/><path d="M322.744,265.415l13.378,0.234c4.702,-8.498 10.619,-16.353 15.736,-25.389l45.905,-78.931c-7.044,1.684 -28.088,27.437 -33.844,32.873c-3.504,3.308 -6.351,8.514 -8.944,14.002c-2.234,4.73 -6.427,7.991 -9.196,12.5l-23.035,44.711Z" style="fill:#e6e6e6;"/><path d="M332.489,666.149c-4.791,-2 -25.15,-20.026 -27.864,-23.244c-10.209,-12.103 -13.895,-16.06 -23.269,-29.692c-6.424,-9.342 -13.037,-22.296 -17.229,-34.652c-2.413,-7.111 -11.95,-35.483 -10.338,-41.04c-4.19,41.663 -3.67,56.964 17.618,84.663c12.139,15.795 42.514,36.49 61.082,43.965" style="fill:#e6e6e6;"/><path d="M319.055,635.27c-6.454,-16.792 -19.825,-32.376 -22.585,-52.722c-3.482,-25.667 -3.906,-14.325 -9.25,-29.151l-8.501,-30.444c-6.378,28.647 -7.417,40.637 4.236,66.896c7.802,17.582 18.211,24.892 26.724,34.467c2.718,3.057 6.374,8.36 9.376,10.954" style="fill:#e6e6e6;"/><path d="M643.512,629.704l8.44,-9.406c1.626,-1.91 2.701,-2.615 4.453,-4.869c6.543,-8.418 14.997,-19.999 19.991,-29.832c11.017,-21.694 8.912,-40.262 0.363,-63.424c-2.327,25.1 -10.373,35.036 -14.674,56.251c-2.285,11.277 -3.929,17.559 -8.018,27.317l-10.555,23.963Z" style="fill:#e6e6e6;"/><path d="M629.653,663.397c15.654,-7.959 29.224,-19.133 42.049,-29.607l12.01,-11.819c19.965,-22.003 20.783,-40.014 18.753,-77.243c-2.348,4.874 -2.849,13.926 -4.457,19.873c-4.433,16.393 -13.599,35.582 -22.537,49.094c-10.336,15.626 -21.17,25.622 -33.153,38.459c-3.463,3.711 -9.39,7.258 -12.665,11.243" style="fill:#e6e6e6;"/><path d="M378.087,268.705l10.832,0.382l57.965,-138.259l-18.975,32.897c-6.781,11.126 -11.285,22.252 -17.622,34.209c-6.225,11.746 -10.673,23.602 -16.362,35.598c-5.256,11.083 -11.695,24.208 -15.838,35.173" style="fill:#e6e6e6;"/><path d="M435.565,669.445c-2.52,-5.912 -7.881,-12.32 -11.433,-18.396c-12.939,-22.136 -13.002,-57.572 -20.58,-70.449c-6.877,7.434 -12.228,7.571 -11.356,23.532c0.938,17.14 17.526,34.442 26.49,46.164c4.201,5.494 12.381,15.498 16.879,19.149" style="fill:#e6e6e6;"/><path d="M316.482,231.88l3.853,0.236c0.059,-0.018 0.318,-0.111 0.376,-0.132l1.626,-0.769c0.037,-0.009 0.277,-0.045 0.311,-0.051l0.938,-0.08c1.926,2.584 1.171,3.736 1.621,6.78c3.865,-2.539 9.979,-11.079 13.369,-15.058l14.744,-14.399c2.851,-2.881 3.844,-9.144 6.411,-13.148c4.895,-7.635 11.01,-15.098 16.502,-21.941c5.681,-7.077 14.348,-15.776 16.623,-20.868l-20.027,17.476c-3.483,3.199 -6.567,6.067 -10.117,9.568l-9.88,9.877c-8.839,8.004 -7.895,8.65 -14.744,14.262c-2.951,2.418 -2.585,3.104 -4.692,5.773c-5.272,6.677 -13.645,15.482 -16.914,22.474" style="fill:#e6e6e6;"/><path d="M568.179,269.123l13.52,-0.149l-12.3,-27.849c-11.65,-27.228 -25.436,-57.21 -42.358,-79.89l21.166,53.309c3.563,9.511 6.486,17.737 10.082,27.275c3.318,8.804 7.75,18.343 9.89,27.304" style="fill:#e6e6e6;"/><path d="M525.775,667.517c3.482,-2.672 8.74,-9.815 11.476,-13.485c11.221,-15.056 37.811,-47.206 24.598,-65.963c-3.382,-4.802 -5.453,-5.022 -8.438,-8.279c-2.897,14.96 -10.317,56.933 -16.482,69.763c-3.287,6.841 -7.947,11.591 -11.154,17.964" style="fill:#e6e6e6;"/><path d="M549.096,554.699c4.701,-13.009 -2.36,-49.316 -7.843,-61.196c-3.722,-8.064 -8.261,-14.42 -15.436,-19.892c-5.483,-4.181 -15.757,-11.326 -24.302,-12.736l15.837,19.114c17.185,22.707 30.715,43.221 31.744,74.71" style="fill:#e6e6e6;"/><path d="M411.734,533.703l1.269,21.57c1.688,-27.05 11.601,-55.646 27.886,-75.483l8.057,-9.562c2.721,-3.275 4.32,-7.043 8.147,-8.804c-13.067,1.854 -28.946,15.672 -34.214,24.202c-6.873,11.131 -12.324,32.249 -11.145,48.077" style="fill:#e6e6e6;"/><path d="M251.576,248.755c4.16,-1.239 7.38,-4.245 10.228,-6.205c24.537,-16.891 62.466,-43.422 85.522,-61.825c6.365,-5.081 11.7,-9.066 18.909,-14.319c6.438,-4.691 6.472,-2.405 14.183,-9.675c3.511,-3.31 21.426,-15.458 22.967,-18.197c-7.607,3.342 -13.651,7.657 -19.709,12.148l-28.576,20.187c-3.12,2.275 -6.325,5.053 -9.326,7.268c-6.581,4.854 -12.216,9.683 -18.998,14.243c-11.418,7.678 -70.713,42.983 -75.199,56.376" style="fill:#e6e6e6;"/><path d="M272.46,258.546l8.658,1.442c5.292,-7.06 15.106,-19.754 20.95,-24.876l45.66,-45.667c3.287,-4.29 6.871,-8.388 10.89,-11.961c3.838,-3.413 8.392,-6.702 12.213,-10.97l-26.019,21.035c-3.757,4.127 -7.61,6.176 -12.542,11.291c-13.505,14.008 -56.876,45.383 -59.81,59.706" style="fill:#e6e6e6;"/><path d="M569.828,541.483c1.826,-18.534 -2.336,-34.447 -10.163,-48.792c-4.045,-7.412 -7.692,-11.8 -12.913,-17.152c-3.485,-3.572 -11.854,-12.395 -16.407,-14.153c3.94,6.878 6.431,4.981 12.055,17.464c8.165,18.121 10.472,18.568 18.63,41.524c2.27,6.388 7.608,17.129 8.798,21.109" style="fill:#e6e6e6;"/><path d="M393.072,542.381c2.264,-2.245 11.151,-35.059 14.148,-42.213c4.054,-9.68 9.799,-25.132 17.061,-32.837c2.702,-2.868 1.559,-0.495 3.222,-4.454c-9.931,4.541 -22.284,20.037 -27.137,31.401c-2.937,6.877 -6.042,13.635 -7.478,21.63c-0.875,4.877 -1.504,22.141 0.184,26.473" style="fill:#e6e6e6;"/><path d="M678.498,261.015l10.402,-1.185c-7.123,-11.163 -23.38,-26.478 -33.305,-35.407c-13.198,-11.874 -20.454,-20.65 -36.523,-32.706l30.675,33.441c9.044,9.123 6.159,5.352 15.388,16.77c5.545,6.86 8.244,11.626 13.363,19.087" style="fill:#e6e6e6;"/><path d="M240.543,237.557l42.665,-27.506c7.323,-4.248 41.145,-21.738 41.974,-28.65c-7.18,2.993 -14.989,8.295 -22.085,12.198c-11.597,6.379 -61.179,32.929 -62.554,43.958" style="fill:#e6e6e6;"/><path d="M316.482,231.88c-2.711,2.073 -9.052,11.222 -11.458,15.516l-8.057,12.767c-2.435,2.936 -1.992,0.045 -2.304,4.522c12.001,-2.698 7.312,7.38 24.546,-17.602l4.815,-6.579c0.109,-0.166 0.285,-0.432 0.38,-0.598c0.095,-0.168 0.236,-0.489 0.314,-0.645l0.489,-1.397c-0.45,-3.044 0.305,-4.196 -1.621,-6.78l-0.938,0.08c-0.034,0.006 -0.274,0.042 -0.311,0.051l-1.626,0.769c-0.058,0.021 -0.317,0.114 -0.376,0.132l-3.853,-0.236Z" style="fill:#e6e6e6;"/><path d="M376.156,476.575c-3.495,-11.677 -11.411,-21.657 -17.659,-29.705c-3.393,-4.372 -12.152,-12.881 -16.366,-18.924c-1.677,-2.405 -2.934,-5.341 -5.012,-7.376c1.018,15.264 16.309,36.022 25.962,45.587c2.25,2.229 3.962,3.051 6.179,5.244c3.172,3.138 2.697,4.324 6.896,5.174" style="fill:#e6e6e6;"/><path d="M719.537,236.52c-3.827,-2.086 -10.044,-9.678 -19.041,-15.508c-7.811,-5.062 -14.243,-9.482 -22.098,-14.16c-10.842,-6.458 -35.915,-23.247 -46.992,-26.348c3.21,4.106 39.464,27.352 42.832,29.417c7.132,4.371 14.303,9.707 22.347,14.051c3.512,1.896 7.907,3.652 11.85,5.787c3.397,1.839 8.096,6.048 11.102,6.761" style="fill:#e6e6e6;"/><path d="M463.009,352.055c6.13,-3.272 5.695,-10.329 18.282,-10.473c9.016,-0.104 15.066,4.96 17.962,9.956l3.188,-15.232l-41.965,-0.822c1.702,6.051 2.559,9.268 2.533,16.571" style="fill:#e6e6e6;"/><path d="M706.742,250.142c-1.209,-8.312 -38.999,-33.018 -49.945,-40.339l-36.585,-24.673c-13.101,-8.753 -39.905,-33.459 -53.192,-39.003l139.722,104.015Z" style="fill:#e6e6e6;"/><path d="M587.813,474.686c6.204,-1.628 18.177,-17.349 21.333,-22.788c4.167,-7.184 11.99,-20.873 13.166,-29.994c-15.841,25.464 -9.38,15.139 -27.696,37.254c-3.361,4.059 -5.289,9.273 -6.803,15.528" style="fill:#e6e6e6;"/><path d="M391.795,461.012c7.27,-1.812 5.494,-6.894 2.133,-13.275c-5.209,-9.891 -23.874,-28.478 -32.11,-34.293c7.549,9.161 25.875,32.839 29.977,47.568" style="fill:#e6e6e6;"/><path d="M655.941,402.67c1.809,5.685 7.353,12.807 9.149,20.83c2.399,10.715 -8.894,19.951 2.284,17.124c11.221,-2.838 1.863,-33.84 -11.433,-37.954" style="fill:#e6e6e6;"/><path d="M298.053,439.606c-1.655,-8.505 -6.891,-8.279 -2,-20.55c2.243,-5.628 5.948,-10.944 8.454,-16.152c-14.488,4.125 -27.008,43.046 -6.454,36.702" style="fill:#e6e6e6;"/><path d="M568.479,459.18c2.213,-0.848 0.831,0.245 2.381,-1.878l4.818,-10.878c6.689,-12.694 20.346,-24.785 26.069,-33.805c-3.737,3.67 -44.269,34.68 -33.268,46.561" style="fill:#e6e6e6;"/><path d="M378.075,354.428c3.895,-0.995 4.711,-2.55 8.048,-4.762c31.045,-20.581 47.469,2.134 61.458,10.849c-4.351,-12.396 -14.196,-21.548 -30.808,-22.522c-18.158,-1.064 -34.265,2.871 -38.698,16.435" style="fill:#2c303c;"/><path d="M516.038,360.619c4.487,-2.313 15.309,-15.495 31.629,-19.663c15.813,-4.039 27.165,7.249 36.333,12.727c-2.691,-18.772 -39.358,-22.302 -56.113,-8.616c-4.013,3.278 -10.609,9.45 -11.849,15.552" style="fill:#2c303c;"/><g><path d="M167.466,879.578l-0,2.658c-0,2.625 -0.554,4.626 -1.661,6.004c-1.107,1.379 -2.735,2.068 -4.884,2.068c-2.215,-0 -3.81,-0.607 -4.787,-1.821c-0.977,-1.215 -1.465,-3.167 -1.465,-5.857c-0,-2.363 0.197,-5.316 0.59,-8.86c0.394,-3.543 0.591,-5.906 0.591,-7.087c0,-2.756 -0.197,-5.824 -0.591,-9.204c-0.393,-3.38 -0.59,-5.398 -0.59,-6.054c-0,-1.969 0.667,-3.675 2.002,-5.119c1.335,-1.443 2.947,-2.165 4.836,-2.165c2.149,-0 3.68,0.738 4.591,2.215c0.912,1.476 1.368,4.019 1.368,7.629l-0,2.854c-0,6.234 2.789,11.222 8.367,14.963c5.578,3.74 13.092,5.61 22.542,5.61c7.218,0 12.813,-1.542 16.783,-4.626c3.97,-3.084 5.955,-7.383 5.955,-12.895c0,-2.232 -0.623,-4.332 -1.87,-6.3c-1.247,-1.969 -3.051,-3.642 -5.414,-5.021c-1.64,-0.984 -5.693,-1.87 -12.157,-2.657c-6.464,-0.788 -11.599,-1.575 -15.405,-2.363c-9.975,-2.1 -17.21,-5.414 -21.705,-9.942c-4.496,-4.528 -6.743,-10.697 -6.743,-18.506c-0,-8.859 3.281,-15.914 9.843,-21.164c6.563,-5.25 15.455,-7.875 26.677,-7.875c5.315,0 10.188,0.739 14.618,2.215c4.429,1.477 8.35,3.691 11.763,6.645c-0.066,-0.329 -0.115,-0.673 -0.148,-1.034c-0.033,-0.361 -0.049,-0.902 -0.049,-1.624c-0,-1.903 0.459,-3.413 1.378,-4.528c0.919,-1.116 2.198,-1.674 3.839,-1.674c1.444,0 2.674,0.624 3.691,1.871c1.018,1.246 1.526,2.69 1.526,4.331c0,0.197 -0.033,0.689 -0.098,1.476c-0.722,6.432 -1.083,13.552 -1.083,21.361l-0,5.611c-0,2.297 -0.476,3.987 -1.427,5.069c-0.952,1.083 -2.412,1.625 -4.381,1.625c-2.034,-0 -3.462,-0.542 -4.282,-1.625c-0.82,-1.082 -1.23,-3.035 -1.23,-5.857l-0,-2.657c-0,-5.841 -2.149,-10.451 -6.448,-13.831c-4.298,-3.379 -10.188,-5.069 -17.669,-5.069c-6.956,-0 -12.403,1.444 -16.341,4.331c-3.937,2.888 -5.906,6.891 -5.906,12.009c0,2.1 0.377,3.971 1.132,5.611c0.755,1.641 1.854,2.986 3.298,4.036c3.215,2.559 9.581,4.299 19.096,5.217c4.004,0.328 7.153,0.689 9.45,1.083c10.828,1.641 18.703,4.577 23.625,8.81c4.922,4.233 7.383,10.221 7.383,17.965c-0,9.778 -3.544,17.702 -10.631,23.772c-7.088,6.07 -16.406,9.106 -27.956,9.106c-6.366,-0 -12.157,-0.936 -17.374,-2.806c-5.217,-1.87 -9.434,-4.512 -12.649,-7.924Z" style="fill:#2c303c;fill-rule:nonzero;"/><path d="M267.959,839.711l0,0.591c0,11.09 2.74,19.982 8.22,26.676c5.479,6.694 12.747,10.041 21.804,10.041c5.512,-0 10.155,-0.985 13.928,-2.953c3.774,-1.969 7.203,-5.152 10.287,-9.549c1.181,-1.772 2.428,-4.462 3.74,-8.072c2.035,-5.381 4.594,-8.071 7.679,-8.071c1.968,-0 3.609,0.672 4.921,2.018c1.313,1.345 1.969,3.035 1.969,5.069c0,2.363 -0.787,5.299 -2.362,8.81c-1.575,3.511 -3.675,7.006 -6.3,10.484c-4.069,5.25 -8.909,9.121 -14.52,11.615c-5.611,2.494 -12.321,3.741 -20.13,3.741c-13.912,-0 -24.954,-4.709 -33.124,-14.126c-8.17,-9.417 -12.255,-22.132 -12.255,-38.144c-0,-15.947 4.085,-28.629 12.255,-38.046c8.17,-9.417 19.212,-14.125 33.124,-14.125c13.387,-0 24.084,4.019 32.09,12.058c8.007,8.039 12.01,18.785 12.01,32.238c-0,3.872 -0.657,6.464 -1.969,7.776c-1.313,1.313 -3.872,1.969 -7.678,1.969l-63.689,0Zm0.985,-12.895l55.616,0l0,-1.28c0,-8.006 -2.51,-14.503 -7.53,-19.49c-5.02,-4.988 -11.566,-7.481 -19.638,-7.481c-7.941,-0 -14.454,2.526 -19.54,7.579c-5.086,5.053 -8.055,11.944 -8.908,20.672Z" style="fill:#2c303c;fill-rule:nonzero;"/><path d="M445.726,832.954c-0,-12.047 -2.018,-20.659 -6.054,-25.836c-4.036,-5.177 -10.68,-7.766 -19.933,-7.766c-10.435,0 -18.08,3.582 -22.936,10.744c-4.856,7.163 -7.284,18.526 -7.284,34.089l-0,20.215c-0,4.334 0.475,7.274 1.427,8.821c0.951,1.547 2.773,2.321 5.463,2.321c0.394,0 1.378,-0.197 2.953,-0.591c1.575,-0.393 2.921,-0.59 4.036,-0.59c2.691,-0 4.676,0.558 5.956,1.673c1.279,1.116 1.919,2.858 1.919,5.225c0,2.096 -0.591,3.685 -1.772,4.767c-1.181,1.083 -2.953,1.624 -5.315,1.624c-0.394,-0 -3.232,-0.197 -8.515,-0.591c-5.283,-0.394 -10.352,-0.59 -15.209,-0.59c-4.068,-0 -8.498,0.196 -13.289,0.59c-4.79,0.394 -7.546,0.591 -8.268,0.591c-2.822,-0 -4.807,-0.474 -5.956,-1.421c-1.148,-0.947 -1.722,-2.536 -1.722,-4.767c-0,-2.367 0.689,-4.143 2.067,-5.326c1.378,-1.183 3.445,-1.775 6.201,-1.775c0.722,-0 1.674,0.197 2.855,0.59c1.181,0.394 2.034,0.591 2.559,0.591c3.872,0 6.448,-0.735 7.728,-2.204c1.279,-1.469 1.919,-4.937 1.919,-10.403l0,-48.339c0,-5.599 -0.672,-9.342 -2.018,-11.23c-1.345,-1.888 -3.888,-2.833 -7.629,-2.833l-6.201,0c-2.625,0 -4.528,-0.43 -5.709,-1.292c-1.182,-0.861 -1.772,-2.256 -1.772,-4.186c-0,-2.205 0.705,-3.91 2.116,-5.116c1.411,-1.206 3.396,-1.809 5.956,-1.809c0.328,0 1.443,0.197 3.346,0.591c1.904,0.394 3.675,0.591 5.316,0.591c4.069,-0 8.236,-0.328 12.501,-0.985c0.919,-0.131 1.444,-0.197 1.575,-0.197c2.56,0 4.282,0.563 5.168,1.688c0.886,1.125 1.329,3.515 1.329,7.172l0,7.352c4.725,-6.158 9.713,-10.579 14.963,-13.265c5.25,-2.686 11.484,-4.029 18.703,-4.029c13.649,-0 23.542,3.328 29.678,9.986c6.136,6.657 9.204,17.491 9.204,32.503l-0,31.641c-0,6.723 0.623,10.798 1.87,12.225c1.247,1.426 3.774,2.139 7.58,2.139c0.853,0 1.837,-0.197 2.953,-0.591c1.116,-0.393 1.903,-0.59 2.362,-0.59c2.757,-0 4.857,0.592 6.3,1.775c1.444,1.183 2.166,2.959 2.166,5.326c-0,2.164 -0.64,3.736 -1.92,4.717c-1.279,0.98 -3.33,1.471 -6.152,1.471c-0.722,-0 -3.494,-0.197 -8.318,-0.591c-4.823,-0.394 -9.269,-0.59 -13.338,-0.59c-4.79,-0 -9.811,0.196 -15.061,0.59c-5.25,0.394 -8.071,0.591 -8.465,0.591c-2.297,-0 -4.053,-0.541 -5.267,-1.624c-1.214,-1.082 -1.821,-2.671 -1.821,-4.767c0,-2.367 0.624,-4.109 1.871,-5.225c1.247,-1.115 3.182,-1.673 5.807,-1.673c1.116,-0 2.494,0.197 4.135,0.59c1.64,0.394 2.69,0.591 3.15,0.591c2.756,0 4.577,-0.799 5.463,-2.397c0.886,-1.598 1.329,-5.457 1.329,-11.576l-0,-28.615Z" style="fill:#2c303c;fill-rule:nonzero;"/><path d="M507.632,879.578l0,2.658c0,2.625 -0.553,4.626 -1.66,6.004c-1.107,1.379 -2.735,2.068 -4.884,2.068c-2.215,-0 -3.811,-0.607 -4.787,-1.821c-0.977,-1.215 -1.465,-3.167 -1.465,-5.857c-0,-2.363 0.197,-5.316 0.59,-8.86c0.394,-3.543 0.591,-5.906 0.591,-7.087c-0,-2.756 -0.197,-5.824 -0.591,-9.204c-0.393,-3.38 -0.59,-5.398 -0.59,-6.054c-0,-1.969 0.667,-3.675 2.002,-5.119c1.335,-1.443 2.947,-2.165 4.836,-2.165c2.149,-0 3.68,0.738 4.591,2.215c0.912,1.476 1.367,4.019 1.367,7.629l0,2.854c0,6.234 2.79,11.222 8.368,14.963c5.578,3.74 13.092,5.61 22.542,5.61c7.218,0 12.813,-1.542 16.783,-4.626c3.97,-3.084 5.955,-7.383 5.955,-12.895c0,-2.232 -0.623,-4.332 -1.87,-6.3c-1.247,-1.969 -3.051,-3.642 -5.414,-5.021c-1.641,-0.984 -5.693,-1.87 -12.157,-2.657c-6.464,-0.788 -11.599,-1.575 -15.405,-2.363c-9.975,-2.1 -17.21,-5.414 -21.705,-9.942c-4.496,-4.528 -6.743,-10.697 -6.743,-18.506c-0,-8.859 3.281,-15.914 9.843,-21.164c6.563,-5.25 15.455,-7.875 26.677,-7.875c5.315,0 10.188,0.739 14.617,2.215c4.43,1.477 8.351,3.691 11.764,6.645c-0.066,-0.329 -0.115,-0.673 -0.148,-1.034c-0.033,-0.361 -0.049,-0.902 -0.049,-1.624c-0,-1.903 0.459,-3.413 1.378,-4.528c0.919,-1.116 2.198,-1.674 3.839,-1.674c1.444,0 2.674,0.624 3.691,1.871c1.017,1.246 1.526,2.69 1.526,4.331c0,0.197 -0.033,0.689 -0.098,1.476c-0.722,6.432 -1.083,13.552 -1.083,21.361l-0,5.611c-0,2.297 -0.476,3.987 -1.428,5.069c-0.951,1.083 -2.411,1.625 -4.38,1.625c-2.034,-0 -3.462,-0.542 -4.282,-1.625c-0.82,-1.082 -1.23,-3.035 -1.23,-5.857l-0,-2.657c-0,-5.841 -2.15,-10.451 -6.448,-13.831c-4.298,-3.379 -10.188,-5.069 -17.669,-5.069c-6.957,-0 -12.403,1.444 -16.341,4.331c-3.937,2.888 -5.906,6.891 -5.906,12.009c0,2.1 0.377,3.971 1.132,5.611c0.755,1.641 1.854,2.986 3.298,4.036c3.215,2.559 9.581,4.299 19.096,5.217c4.003,0.328 7.153,0.689 9.45,1.083c10.828,1.641 18.703,4.577 23.625,8.81c4.922,4.233 7.383,10.221 7.383,17.965c-0,9.778 -3.544,17.702 -10.631,23.772c-7.088,6.07 -16.406,9.106 -27.956,9.106c-6.366,-0 -12.157,-0.936 -17.374,-2.806c-5.218,-1.87 -9.434,-4.512 -12.65,-7.924Z" style="fill:#2c303c;fill-rule:nonzero;"/><path d="M655.474,851.425l0,-15.553c-4.134,3.216 -13.026,5.775 -26.676,7.678l-0.098,0c-9.713,1.313 -16.243,3.281 -19.589,5.906c-3.347,2.625 -5.021,6.628 -5.021,12.01c0,4.528 1.739,8.252 5.218,11.172c3.478,2.921 7.973,4.381 13.485,4.381c9.975,-0 17.916,-2.33 23.822,-6.989c5.906,-4.66 8.859,-10.861 8.859,-18.605Zm2.363,23.428c-3.938,4.987 -8.86,8.777 -14.766,11.369c-5.906,2.593 -12.731,3.889 -20.475,3.889c-10.762,-0 -18.998,-2.543 -24.707,-7.629c-5.709,-5.086 -8.564,-12.354 -8.564,-21.804c-0,-8.662 2.526,-15.241 7.58,-19.736c5.053,-4.496 13.551,-7.596 25.495,-9.303c0.721,-0.131 1.673,-0.262 2.854,-0.393c19.491,-2.822 29.236,-8.4 29.236,-16.735c-0,-5.249 -1.887,-9.351 -5.66,-12.304c-3.774,-2.953 -9.007,-4.43 -15.701,-4.43c-5.512,0 -10.319,0.919 -14.421,2.756c-4.101,1.838 -6.152,3.807 -6.152,5.907c-0,0.459 0.771,1.624 2.313,3.494c1.542,1.87 2.313,3.724 2.313,5.562c0,2.625 -0.968,4.823 -2.903,6.595c-1.936,1.772 -4.348,2.658 -7.236,2.658c-3.674,-0 -6.562,-1.198 -8.662,-3.593c-2.1,-2.395 -3.15,-5.693 -3.15,-9.893c0,-7.612 3.626,-13.781 10.877,-18.506c7.252,-4.725 16.915,-7.087 28.99,-7.087c12.469,-0 21.426,2.674 26.873,8.022c5.447,5.349 8.17,14.159 8.17,26.43l0,45.576c0,4.529 0.46,7.547 1.378,9.057c0.919,1.509 2.56,2.264 4.922,2.264c2.494,-0 4.299,-0.804 5.414,-2.412c1.116,-1.608 1.674,-4.315 1.674,-8.121l-0,-10.041c-0,-2.887 0.459,-4.987 1.378,-6.3c0.919,-1.312 2.395,-1.968 4.429,-1.968c2.1,-0 3.593,0.656 4.479,1.968c0.886,1.313 1.329,3.61 1.329,6.891l0,14.667c0,5.775 -1.804,10.287 -5.414,13.535c-3.609,3.249 -8.564,4.873 -14.864,4.873c-5.25,-0 -9.335,-1.329 -12.255,-3.987c-2.92,-2.658 -4.512,-6.415 -4.774,-11.271Z" style="fill:#b3b3b3;fill-rule:nonzero;"/><path d="M723.189,861.18l-0,-39.844c-0,-9.179 -0.657,-14.892 -1.969,-17.138c-1.313,-2.246 -4.003,-3.369 -8.072,-3.369l-7.284,-0c-2.428,-0 -4.102,-0.448 -5.02,-1.342c-0.919,-0.895 -1.379,-2.443 -1.379,-4.646c0,-1.858 0.673,-3.441 2.018,-4.749c1.346,-1.308 3.003,-1.962 4.971,-1.962c0.394,0 1.887,0.197 4.479,0.591c2.592,0.394 5.004,0.591 7.235,0.591c3.741,-0 7.646,-0.328 11.714,-0.985c0.985,-0.131 1.575,-0.197 1.772,-0.197c2.756,0 4.594,0.528 5.513,1.582c0.918,1.055 1.378,3.481 1.378,7.278l-0,64.19c-0,6.244 0.607,10.232 1.821,11.963c1.214,1.731 3.757,2.596 7.629,2.596c0.853,-0 1.837,-0.197 2.953,-0.591c1.115,-0.393 1.903,-0.59 2.362,-0.59c2.822,-0 4.938,0.575 6.349,1.725c1.411,1.15 2.117,2.875 2.117,5.176c-0,2.232 -0.607,3.822 -1.821,4.77c-1.214,0.947 -3.232,1.421 -6.054,1.421c-0.788,-0 -3.544,-0.197 -8.269,-0.591c-4.725,-0.394 -9.023,-0.59 -12.895,-0.59c-7.284,-0 -14.667,0.319 -22.148,0.959c-1.641,0.148 -2.658,0.222 -3.052,0.222c-2.887,-0 -4.954,-0.491 -6.201,-1.472c-1.247,-0.981 -1.871,-2.554 -1.871,-4.719c0,-2.301 0.706,-4.026 2.117,-5.176c1.411,-1.15 3.527,-1.725 6.349,-1.725c0.656,-0 1.608,0.197 2.855,0.59c1.247,0.394 2.165,0.591 2.756,0.591c4.003,-0 6.612,-0.832 7.826,-2.495c1.214,-1.663 1.821,-5.684 1.821,-12.064Zm-6.005,-91.851c0,-3.084 1.05,-5.676 3.15,-7.776c2.1,-2.1 4.692,-3.15 7.777,-3.15c2.953,-0 5.43,1.05 7.431,3.15c2.002,2.1 3.003,4.692 3.003,7.776c-0,2.953 -1.017,5.48 -3.052,7.58c-2.034,2.1 -4.495,3.15 -7.382,3.15c-3.085,-0 -5.677,-1.034 -7.777,-3.101c-2.1,-2.067 -3.15,-4.61 -3.15,-7.629Z" style="fill:#b3b3b3;fill-rule:nonzero;"/></g></g></svg>